<?xml version="1.0" encoding="UTF-8"?>
<svg width="416px" height="449px" viewBox="0 0 416 449" version="1.1" xmlns="http://www.w3.org/2000/svg" xmlns:xlink="http://www.w3.org/1999/xlink">
    <title>0A165A93-E7BA-40C4-A796-000AC1D60631@1x</title>
    <defs>
        <polygon id="path-1" points="0.224927128 0.442996271 5.40913298 0.442996271 5.40913298 29.5543119 0.224927128 29.5543119"></polygon>
        <polygon id="path-3" points="0.00410638298 0.891538983 29.3493457 0.891538983 29.3493457 19.0345627 0.00410638298 19.0345627"></polygon>
        <polygon id="path-5" points="0.712868085 0.71179322 11.2504628 0.71179322 11.2504628 7.08917288 0.712868085 7.08917288"></polygon>
    </defs>
    <g id="Instructional" stroke="none" stroke-width="1" fill="none" fill-rule="evenodd">
        <g id="Instructional-/-track-transfer">
            <g id="Group-80" transform="translate(2.000000, 0.000000)">
                <g id="Group-7" transform="translate(38.000000, 0.000000)">
                    <path d="M303.554664,436.580758 L66.544757,436.580758 C51.9404579,436.580758 40.1015794,424.750949 40.1015794,410.158866 L40.1015794,39.4244095 C40.1015794,24.832326 51.9404579,13.0025172 66.544757,13.0025172 L303.554664,13.0025172 C318.157935,13.0025172 329.996813,24.832326 329.996813,39.4244095 L329.996813,410.158866 C329.996813,424.750949 318.157935,436.580758 303.554664,436.580758" id="Fill-1" fill="#E1E1E1"></path>
                    <path d="M279.610645,448.907756 L28.8055047,448.907756 C13.3510187,448.907756 0.82335514,436.38969 0.82335514,420.948071 L0.82335514,28.6352048 C0.82335514,13.1935857 13.3510187,0.675519475 28.8055047,0.675519475 L279.610645,0.675519475 C295.064103,0.675519475 307.591766,13.1935857 307.591766,28.6352048 L307.591766,420.948071 C307.591766,436.38969 295.064103,448.907756 279.610645,448.907756" id="Fill-3" fill="#FFFFFF"></path>
                    <path d="M279.610645,448.907756 L28.8055047,448.907756 C13.3510187,448.907756 0.82335514,436.38969 0.82335514,420.948071 L0.82335514,28.6352048 C0.82335514,13.1935857 13.3510187,0.675519475 28.8055047,0.675519475 L279.610645,0.675519475 C295.064103,0.675519475 307.591766,13.1935857 307.591766,28.6352048 L307.591766,420.948071 C307.591766,436.38969 295.064103,448.907756 279.610645,448.907756 Z" id="Stroke-5" stroke="#E1E1E1" stroke-width="4"></path>
                </g>
                <g id="Group-79" transform="translate(0.000000, 99.000000)">
                    <path d="M285.321447,5.01675559 L66.9286016,5.01675559 C65.6504899,5.01675559 64.6146548,3.98039288 64.6146548,2.70163017 C64.6146548,1.42286746 65.6504899,0.385477627 66.9286016,0.385477627 L285.321447,0.385477627 C286.599559,0.385477627 287.635394,1.42286746 287.635394,2.70163017 C287.635394,3.98039288 286.599559,5.01675559 285.321447,5.01675559" id="Fill-8" fill="#D7D7D7"></path>
                    <path d="M285.321447,21.4416153 L66.9286016,21.4416153 C65.6504899,21.4416153 64.6146548,20.4042254 64.6146548,19.1254627 C64.6146548,17.8467 65.6504899,16.8103373 66.9286016,16.8103373 L285.321447,16.8103373 C286.599559,16.8103373 287.635394,17.8467 287.635394,19.1254627 C287.635394,20.4042254 286.599559,21.4416153 285.321447,21.4416153" id="Fill-10" fill="#D7D7D7"></path>
                    <path d="M285.321447,37.8665776 L66.9286016,37.8665776 C65.6504899,37.8665776 64.6146548,36.8291878 64.6146548,35.5504251 C64.6146548,34.2716624 65.6504899,33.2352997 66.9286016,33.2352997 L285.321447,33.2352997 C286.599559,33.2352997 287.635394,34.2716624 287.635394,35.5504251 C287.635394,36.8291878 286.599559,37.8665776 285.321447,37.8665776" id="Fill-12" fill="#D7D7D7"></path>
                    <path d="M203.634403,54.2914373 L66.4534931,54.2914373 C65.4381899,54.2914373 64.6148601,53.466661 64.6148601,52.4508407 L64.6148601,51.4997288 C64.6148601,50.4839085 65.4381899,49.6591322 66.4534931,49.6591322 L203.634403,49.6591322 C204.650732,49.6591322 205.474062,50.4839085 205.474062,51.4997288 L205.474062,52.4508407 C205.474062,53.466661 204.650732,54.2914373 203.634403,54.2914373" id="Fill-14" fill="#D7D7D7"></path>
                    <path d="M260.189973,302.157044 L125.814749,302.157044 C115.742819,302.157044 107.578303,293.988369 107.578303,283.911308 C107.578303,273.834247 115.742819,265.665573 125.814749,265.665573 L260.189973,265.665573 C270.261904,265.665573 278.42642,273.834247 278.42642,283.911308 C278.42642,293.988369 270.261904,302.157044 260.189973,302.157044" id="Fill-16" fill="#DFB706"></path>
                    <path d="M258.136781,300.102806 L123.761558,300.102806 C113.689627,300.102806 105.525111,291.934132 105.525111,281.857071 C105.525111,271.78001 113.689627,263.611335 123.761558,263.611335 L258.136781,263.611335 C268.208712,263.611335 276.373228,271.78001 276.373228,281.857071 C276.373228,291.934132 268.208712,300.102806 258.136781,300.102806" id="Fill-18" fill="#FFDD00"></path>
                    <path d="M343.040972,137.423853 L343.040972,238.574497 L152.953424,238.574497 C139.669275,252.3687 121.036562,260.986225 100.42252,260.986225 C79.8084771,260.986225 61.1757644,252.3687 47.9018814,238.574497 L40.8645676,238.574497 L40.8645676,137.423853 L47.9018814,137.423853 C61.1757644,123.620405 79.8084771,115.013151 100.42252,115.013151 C121.036562,115.013151 139.669275,123.620405 152.953424,137.423853 L343.040972,137.423853 Z" id="Fill-20" fill="#0A0005"></path>
                    <path d="M14.1027564,223.3678 C6.32629362,223.3678 0.000410638298,217.038695 0.000410638298,209.258271 L0.000410638298,136.329766 C0.000410638298,128.549342 6.32629362,122.218183 14.1027564,122.218183 L371.111693,122.218183 C378.888155,122.218183 385.214038,128.549342 385.214038,136.329766 L385.214038,209.258271 C385.214038,217.038695 378.888155,223.3678 371.111693,223.3678 L14.1027564,223.3678 Z" id="Fill-22" fill="#2D4E9D"></path>
                    <path d="M85.9809867,243.728578 C46.8871941,243.728578 15.0812048,211.907415 15.0812048,172.792683 C15.0812048,133.678978 46.8871941,101.858842 85.9809867,101.858842 C125.074779,101.858842 156.880769,133.678978 156.880769,172.792683 C156.880769,211.907415 125.074779,243.728578 85.9809867,243.728578" id="Fill-24" fill="#2D4E9D"></path>
                    <path d="M85.9809867,110.075792 C51.415508,110.075792 23.2939707,138.210625 23.2939707,172.79371 C23.2939707,207.375768 51.415508,235.511629 85.9809867,235.511629 C120.546465,235.511629 148.668003,207.375768 148.668003,172.79371 C148.668003,138.210625 120.546465,110.075792 85.9809867,110.075792 M85.9809867,245.782815 C45.754859,245.782815 13.0280133,213.0393 13.0280133,172.79371 C13.0280133,132.547093 45.754859,99.8046051 85.9809867,99.8046051 C126.207114,99.8046051 158.93396,132.547093 158.93396,172.79371 C158.93396,213.0393 126.207114,245.782815 85.9809867,245.782815" id="Fill-26" fill="#2D4E9D"></path>
                    <path d="M371.110871,220.286444 L14.1029617,220.286444 C8.01524894,220.286444 3.0793766,215.348057 3.0793766,209.257244 L3.0793766,136.329766 C3.0793766,130.237925 8.01524894,125.299539 14.1029617,125.299539 L371.110871,125.299539 C377.199611,125.299539 382.134456,130.237925 382.134456,136.329766 L382.134456,209.257244 C382.134456,215.348057 377.199611,220.286444 371.110871,220.286444" id="Fill-28" fill="#FFFFFF"></path>
                    <path d="M85.9809867,240.647222 C48.5851835,240.647222 18.160992,210.207534 18.160992,172.792683 C18.160992,135.378859 48.5851835,104.940198 85.9809867,104.940198 C123.37679,104.940198 153.800981,135.378859 153.800981,172.792683 C153.800981,210.207534 123.37679,240.647222 85.9809867,240.647222" id="Fill-30" fill="#FFFFFF"></path>
                    <path d="M85.9815,102.884934 C47.4533617,102.884934 16.1083138,134.245947 16.1083138,172.79371 C16.1083138,211.340446 47.4533617,242.701459 85.9815,242.701459 C124.508612,242.701459 155.85366,211.340446 155.85366,172.79371 C155.85366,134.245947 124.508612,102.884934 85.9815,102.884934 M85.9815,106.993408 C122.302457,106.993408 151.747277,136.453225 151.747277,172.79371 C151.747277,209.133168 122.302457,238.592985 85.9815,238.592985 C49.659516,238.592985 20.2146968,209.133168 20.2146968,172.79371 C20.2146968,136.453225 49.659516,106.993408 85.9815,106.993408" id="Fill-32" fill="#D7D7D7"></path>
                    <path d="M341.673957,164.864149 L176.932031,164.864149 C174.430218,164.864149 172.401664,162.834562 172.401664,160.331474 C172.401664,157.828386 174.430218,155.799827 176.932031,155.799827 L341.673957,155.799827 C344.176797,155.799827 346.204324,157.828386 346.204324,160.331474 C346.204324,162.834562 344.176797,164.864149 341.673957,164.864149" id="Fill-34" fill="#D7D7D7"></path>
                    <path d="M305.13957,182.390388 L176.017437,182.390388 C174.020709,182.390388 172.401767,180.771649 172.401767,178.773903 L172.401767,176.942551 C172.401767,174.944805 174.020709,173.326066 176.017437,173.326066 L305.13957,173.326066 C307.136299,173.326066 308.754214,174.944805 308.754214,176.942551 L308.754214,178.773903 C308.754214,180.771649 307.136299,182.390388 305.13957,182.390388" id="Fill-36" fill="#D7D7D7"></path>
                    <polygon id="Fill-38" fill="#AFD9AE" points="25.1557021 152.415368 158.933447 130.181331 74.0452713 213.92026"></polygon>
                    <polygon id="Fill-40" fill="#26BCB4" points="43.2479122 175.175496 43.1072686 209.291241 52.289141 186.549807 158.932934 130.180509"></polygon>
                    <polygon id="Fill-42" fill="#5DBC68" points="52.2887303 186.550013 43.1078846 209.291447 60.7735441 197.224857"></polygon>
                    <polygon id="Fill-44" fill="#5DBC68" points="30.7959218 154.026198 74.6664644 209.400219 158.933549 130.180612"></polygon>
                    <polygon id="Fill-46" fill="#AFD9AE" points="38.2453112 155.727415 74.8896463 200.689534 158.93396 130.18092"></polygon>
                    <polygon id="Fill-48" fill="#5DBC68" points="43.2479122 175.175496 43.1072686 209.290214 52.289141 186.549807 158.932934 130.180509"></polygon>
                    <g id="Group-52" transform="translate(46.196809, 171.528814)">
                        <mask id="mask-2" fill="white">
                            <use xlink:href="#path-1"></use>
                        </mask>
                        <g id="Clip-51"></g>
                        <polygon id="Fill-50" fill="#000000" mask="url(#mask-2)" points="0.340932447 2.36678949 0.224927128 29.55462 5.40923564 16.7125556 5.28809734 0.442996271"></polygon>
                    </g>
                    <path d="M107.49792,139.752947 C96.6580957,141.770208 97.7103564,152.257089 98.5562713,153.664242 L126.914952,142.635042 C126.914952,142.635042 117.277271,137.932893 107.49792,139.752947" id="Fill-53" fill="#5DBC68"></path>
                    <path d="M130.454962,145.233549 L103.538648,159.404705 C106.276579,160.791315 122.76884,162.852742 130.541196,155.54582 C137.161712,149.321481 130.454962,145.233549 130.454962,145.233549" id="Fill-55" fill="#5DBC68"></path>
                    <g id="Group-59" transform="translate(98.553191, 141.742373)">
                        <mask id="mask-4" fill="white">
                            <use xlink:href="#path-3"></use>
                        </mask>
                        <g id="Clip-58"></g>
                        <path d="M0.00307978723,11.9217661 C0.00307978723,11.9217661 1.04096809,17.5698915 2.49462766,19.0345627 L29.3493457,4.83567458 C29.3493457,4.83567458 29.148133,1.85908475 28.3617606,0.891538983 L0.00307978723,11.9217661 Z" id="Fill-57" fill="#000000" mask="url(#mask-4)"></path>
                    </g>
                    <g id="Group-62" transform="translate(82.127660, 163.311864)">
                        <mask id="mask-6" fill="white">
                            <use xlink:href="#path-5"></use>
                        </mask>
                        <g id="Clip-61"></g>
                        <path d="M6.4022617,1.21528678 C3.97230957,2.32560203 1.95915532,4.54520542 0.712868085,7.08937831 L11.2519,1.5193139 C9.93888404,0.620585085 8.17621915,0.404890169 6.4022617,1.21528678" id="Fill-60" fill="#000000" mask="url(#mask-6)"></path>
                    </g>
                    <path d="M78.8132952,190.89719 C78.3698059,190.837617 77.958141,190.588027 77.6029388,190.33022 C77.0762952,189.949159 76.693375,189.437654 76.3812899,188.870685 C76.2365399,188.607742 76.1236144,188.317068 76.1154016,188.015095 C76.0917899,187.087607 77.1183856,186.586373 77.9037314,186.934566 C78.9826835,187.411149 79.8029335,188.154783 80.1745612,189.329807 C80.3234176,189.800227 80.258742,190.326112 79.8460505,190.64041 C79.5616835,190.856105 79.1633644,190.942383 78.8132952,190.89719 M79.646891,186.416898 C77.8257101,185.151488 76.3576782,185.645532 75.2520346,186.767146 C74.7787739,187.24681 74.6217048,187.865136 74.7161516,188.517356 C74.8999122,189.777631 75.7314548,190.643492 76.6512846,191.395342 C77.2918803,191.919173 78.0710665,192.202658 78.9334069,192.175953 C80.3429229,192.130759 81.6970027,190.804749 81.6138484,189.535231 C81.513242,188.145539 80.7166037,187.158478 79.646891,186.416898" id="Fill-63" fill="#5DBC68"></path>
                    <path d="M84.9092207,186.771665 C84.4503324,187.226679 83.8744122,187.147591 83.351875,186.855889 C82.9237846,186.618624 82.5172527,186.33514 82.1733431,185.984892 C81.7955559,185.598696 81.4783378,185.118004 81.3643856,184.581848 C81.3171622,184.366153 81.3110027,184.136079 81.3900505,183.928601 C81.5573856,183.488994 82.0306463,183.350333 82.4597633,183.357523 C82.8498697,183.363685 83.1732473,183.546513 83.4853324,183.767343 C84.1536463,184.238791 84.7295665,184.799597 85.0385718,185.604858 C85.2089867,186.048574 85.2469707,186.437852 84.9092207,186.771665 M84.3035293,182.918943 C83.7563537,182.560479 83.1660612,182.285211 82.5408644,182.317052 C81.9649441,182.317052 81.3890239,182.498852 80.9701729,182.792607 C80.3685878,183.214753 79.9302314,183.880326 80.0215984,184.63834 C80.0698484,185.037889 80.2330771,185.414841 80.4332633,185.763035 C80.891125,186.561106 81.5645718,187.303713 82.3755824,187.744346 C82.7482367,187.947716 83.1496356,188.093567 83.5613005,188.189089 C84.8024548,188.473601 86.2509814,187.467024 86.3844388,186.187235 C86.526109,184.835546 85.3362846,183.596841 84.3035293,182.918943" id="Fill-65" fill="#5DBC68"></path>
                    <path d="M62.9026011,157.746525 C61.8924309,159.020152 60.5116596,159.781247 59.0508138,160.374921 C56.414516,161.446206 53.6088298,162.07583 50.7672128,162.203193 C48.206883,162.319257 45.172266,162.266874 42.8952766,160.943945 C42.7104894,160.837125 42.5277553,160.712843 42.3563138,160.575209 C41.7526755,160.090409 41.2855745,159.429972 41.3286915,158.67504 C41.4221117,157.050138 43.5019947,155.749806 44.7667606,155.089369 C47.6104309,153.606209 50.8431809,152.987884 54.0184415,152.786569 C56.5849309,152.623257 59.6092819,152.638664 61.894484,153.987271 C62.3646649,154.263565 62.8050745,154.609704 63.1089468,155.063691 C63.6930798,155.934687 63.5308777,156.953589 62.9026011,157.746525 M67.786117,155.071908 C67.1321755,153.673999 65.9947074,152.846142 64.7145426,152.142565 C63.7577553,151.615654 62.7753032,151.20686 61.475633,150.809365 L52.9189574,151.109284 L36.9482074,155.672772 L45.4063298,165.921362 C45.5387606,165.778593 46.282016,165.761132 46.426766,165.76524 C52.3040266,165.946013 58.420484,164.986684 63.646883,162.14362 C65.2042287,161.296247 66.6024521,160.228043 67.5315213,158.650389 C68.2121543,157.494881 68.3815426,156.343481 67.786117,155.071908" id="Fill-67" fill="#5DBC68"></path>
                    <path d="M88.8863553,185.816753 C88.1092223,190.662699 83.3478713,194.406546 78.9509617,195.882516 C78.6676213,195.978038 78.3832543,196.064316 78.0947809,196.142377 C76.7232489,196.516248 75.2911479,196.701129 73.8754723,196.573766 C72.8940468,196.485434 71.9033819,196.235844 71.0954511,195.667848 C69.770116,194.734197 69.1202809,193.02199 69.2095947,191.398116 C69.2989085,189.775268 70.0452436,188.242807 71.0441213,186.964044 C73.094233,184.334621 75.834217,182.525865 78.9406957,181.399116 C80.4159138,180.865014 81.9650468,180.469573 83.5336851,180.506549 C85.1813713,180.54558 87.0189777,181.086872 88.0476266,182.440614 C88.7785628,183.403024 89.0773021,184.628377 88.8863553,185.816753 M89.9345096,178.868295 C88.234467,177.609048 86.26135,177.003048 84.1568287,176.901363 C78.5772809,176.632258 73.769733,178.636166 69.4621372,182.029766 C67.4808074,183.592014 65.8608394,185.95336 64.6196851,188.167827 L64.0068074,189.829705 L74.9143872,201.182448 L93.2740255,185.423366 C93.2021638,182.592627 92.0585362,180.442868 89.9345096,178.868295" id="Fill-69" fill="#5DBC68"></path>
                    <polygon id="Fill-71" fill="#5DBC68" points="77.2118059 193.900279 75.9839973 194.957184 72.3816729 190.970937 71.7390239 191.899452 70.8725771 190.815842 71.385875 189.623357 72.4596941 188.736954"></polygon>
                    <path d="M54.0897899,158.631182 C54.0446197,158.660968 53.9963697,158.689728 53.9481197,158.714379 C52.916391,159.256697 51.6793431,158.665077 50.9679122,157.86187 C50.7030505,157.561952 50.2770133,157.040175 50.4238165,156.614948 C50.5059441,156.378711 50.7584867,156.239023 51.0058963,156.167124 C51.544859,156.008948 52.1372048,156.074684 52.6587154,156.275999 C53.1822793,156.477314 53.6411676,156.809074 54.0518059,157.180891 C54.391609,157.490053 54.6770027,157.934796 54.363891,158.373375 C54.2899761,158.476087 54.1955293,158.561338 54.0897899,158.631182 M51.5345931,155.27045 C51.0089761,155.274558 50.4915718,155.360836 50.0367899,155.548799 C49.4978271,155.770657 49.0204601,156.239023 48.9578378,156.819345 C48.8592846,157.736562 49.7606356,158.529497 50.4412686,158.992728 C51.9175133,159.994168 53.8351941,160.119477 55.3740612,159.193016 C55.9479282,158.848931 56.1717261,158.029291 55.8678537,157.55887 C55.3155452,156.707389 54.5558644,156.014084 53.6052367,155.645348 C52.9882527,155.403975 52.2532101,155.262233 51.5345931,155.27045" id="Fill-73" fill="#5DBC68"></path>
                    <path d="M60.2900176,156.910039 C60.0189963,157.582802 58.7696293,157.330131 58.2029484,157.032266 C57.635241,156.734402 56.6055654,155.954819 56.6281505,155.222483 C56.6579218,154.2611 58.3620707,154.633944 58.8373846,154.876344 C59.4184378,155.171127 60.1935176,155.681605 60.3197888,156.374911 C60.3598261,156.596768 60.3454537,156.772405 60.2900176,156.910039 M56.2452303,154.118331 C56.1148527,154.172768 55.9885814,154.235422 55.8684697,154.307321 C55.6077144,154.463443 55.3818633,154.697626 55.298709,154.990355 C55.1796239,155.407365 55.3746771,155.822321 55.6272197,156.145863 C56.1867144,156.863819 56.8930122,157.465711 57.7481665,157.791307 C58.6803154,158.14669 59.9245495,158.245294 60.8495122,157.822121 C61.3566505,157.588965 61.7785814,157.07746 61.7282782,156.520761 C61.7015867,156.223924 61.5475973,155.953792 61.3730761,155.713446 C60.8443793,154.981111 60.0898314,154.415168 59.2408367,154.114222 C58.3261399,153.791707 57.1732729,153.735216 56.2452303,154.118331" id="Fill-75" fill="#5DBC68"></path>
                    <polygon id="Fill-77" fill="#5DBC68" points="45.4890734 156.758539 44.5107277 157.824688 45.2159989 158.567295 45.9869723 157.961295 48.7875255 161.112495 50.3397383 160.634885 46.6871106 156.522302"></polygon>
                </g>
            </g>
            <rect id="Header-Copy-2" fill="#D7D7D7" x="69" y="58" width="190" height="17" rx="1.6"></rect>
        </g>
    </g>
</svg>