<?xml version="1.0" encoding="UTF-8"?>
<svg width="416px" height="449px" viewBox="0 0 416 449" version="1.1" xmlns="http://www.w3.org/2000/svg" xmlns:xlink="http://www.w3.org/1999/xlink">
    <title>86D51E5A-D675-48D2-ADF7-AF806F03D3F5@1x</title>
    <defs>
        <polygon id="path-1" points="0.387468721 0.491593545 10.9743894 0.491593545 10.9743894 5.12434951 0.387468721 5.12434951"></polygon>
        <polygon id="path-3" points="0.127090172 0.240139545 26.4935003 0.240139545 26.4935003 11.4344268 0.127090172 11.4344268"></polygon>
        <polygon id="path-5" points="0.787765033 0.1892245 5.37943915 0.1892245 5.37943915 10.7930143 0.787765033 10.7930143"></polygon>
        <path d="M1.19392803,38.6075812 C1.19392803,59.2161735 17.9803035,75.9224602 38.6859581,75.9224602 L38.6859581,75.9224602 C59.3923889,75.9224602 76.1779881,59.2161735 76.1779881,38.6075812 L76.1779881,38.6075812 C76.1779881,17.998989 59.3923889,1.29347484 38.6859581,1.29347484 L38.6859581,1.29347484 C17.9803035,1.29347484 1.19392803,17.998989 1.19392803,38.6075812" id="path-7"></path>
    </defs>
    <g id="Instructional" stroke="none" stroke-width="1" fill="none" fill-rule="evenodd">
        <g id="Instructional-/-receiver">
            <g id="Illustration/SMO/01" transform="translate(1.000000, 0.000000)">
                <g id="Demo" transform="translate(0.600728, 0.391063)">
                    <path d="M370.977832,80.6089369 C372.867441,80.6089369 374.399272,82.1407678 374.399272,84.0303769 L374.399272,111.107937 L385.477832,111.108937 C387.367441,111.108937 388.899272,112.640768 388.899272,114.530377 L388.899272,130.439937 L413.398728,147.608309 L413.397272,147.607937 L413.399272,147.608937 L413.383272,147.606937 L388.899272,146.494937 L388.899272,174.687497 C388.899272,176.577106 387.367441,178.108937 385.477832,178.108937 L374.399272,178.107937 L374.399272,347.187497 C374.399272,349.077106 372.867441,350.608937 370.977832,350.608937 L46.8207119,350.608937 C44.9311028,350.608937 43.3992719,349.077106 43.3992719,347.187497 L43.3992719,178.108937 L32.3207119,178.108937 C30.4311028,178.108937 28.8992719,176.577106 28.8992719,174.687497 L28.8992719,114.530377 C28.8992719,112.640768 30.4311028,111.108937 32.3207119,111.108937 L43.3992719,111.108937 L43.3992719,84.0303769 C43.3992719,82.1407678 44.9311028,80.6089369 46.8207119,80.6089369 L370.977832,80.6089369 Z" id="Shadow" fill="#F3F3F3"></path>
                    <path d="M329.4046,0.57024 C333.665411,0.57024 337.522851,2.29727471 340.315088,5.08951207 C343.107325,7.88174943 344.83436,11.7391894 344.83436,16 L344.83436,16 L344.83436,433 C344.83436,437.260811 343.107325,441.118251 340.315088,443.910488 C337.522851,446.702725 333.665411,448.42976 329.4046,448.42976 L329.4046,448.42976 L30,448.42976 C25.7391894,448.42976 21.8817494,446.702725 19.0895121,443.910488 C16.2972747,441.118251 14.57024,437.260811 14.57024,433 L14.57024,433 L14.57024,16 C14.57024,11.7391894 16.2972747,7.88174943 19.0895121,5.08951207 C21.8817494,2.29727471 25.7391894,0.57024 30,0.57024 L30,0.57024 Z" id="Window" stroke="#CBCBCB" stroke-width="1.14048" fill="#FFFFFF"></path>
                    <rect id="Field" fill="#EFEFEF" x="41.6519443" y="283.509708" width="277.075977" height="43.217015" rx="3.42144"></rect>
                    <rect id="Header" fill="#D7D7D7" x="41.6519443" y="214.502619" width="63.3833934" height="10.8042537" rx="1.14048"></rect>
                    <g id="Call-out" transform="translate(0.000000, 45.700658)">
                        <path d="M78.6130739,58.6739574 C88.5982979,58.6739574 97.7130593,62.3905021 104.642457,68.5122258 L345.892233,68.5117911 L345.892233,126.374279 L105.512644,126.37436 C98.4850135,132.966157 89.0219944,137.004797 78.6130739,137.004797 C68.2041534,137.004797 58.7411343,132.966157 51.7135039,126.37436 L14.4876328,126.374279 L14.4876328,68.5117911 L52.583691,68.5122258 C59.5130885,62.3905021 68.6278499,58.6739574 78.6130739,58.6739574 Z" id="Shadow" fill="#DFDFDF" style="mix-blend-mode: multiply;"></path>
                        <path d="M64.7365142,42.6193417 C75.5988817,42.6208139 85.4332262,47.0003748 92.5524819,54.0793855 C99.6734976,61.1601461 104.078206,70.9415389 104.079677,81.7449327 C104.081148,92.5484554 99.6790157,102.32875 92.5598505,109.407658 C85.4424459,116.484815 75.609199,120.861797 64.7467038,120.860325 C53.8843363,120.858853 44.0499918,116.479292 36.9307361,109.400281 C29.8097205,102.319521 25.4050118,92.5381279 25.4035407,81.7347342 C25.4020695,70.9312114 29.8042023,61.1509167 36.9233675,54.0720088 C44.0407721,46.9948516 53.874019,42.6178695 64.7365142,42.6193417 Z" id="Container-/-Avatar" stroke="#2D4E9D" stroke-width="1.71072" fill="#FFFFFF" transform="translate(64.741609, 81.739833) rotate(-1.000000) translate(-64.741609, -81.739833) "></path>
                        <path d="M205.579836,-99.8624734 C206.760842,-99.8624734 207.830042,-99.3837763 208.60399,-98.6098277 C209.377939,-97.8358791 209.856636,-96.7666791 209.856636,-95.5856734 L209.856636,-95.5856734 L209.856636,257.951312 C209.856636,259.132318 209.377939,260.201518 208.60399,260.975466 C207.830042,261.749415 206.760842,262.228112 205.579836,262.228112 L205.579836,262.228112 L154.800029,262.228112 C153.619024,262.228112 152.549824,261.749415 151.775875,260.975466 C151.001927,260.201518 150.523229,259.132318 150.523229,257.951312 L150.523229,257.951312 L150.523229,-95.5856734 C150.523229,-96.7666791 151.001927,-97.8358791 151.775875,-98.6098277 C152.549824,-99.3837763 153.619024,-99.8624734 154.800029,-99.8624734 L154.800029,-99.8624734 Z" id="Container-/-Content" stroke="#2D4E9D" stroke-width="1.71072" fill="#FFFFFF" transform="translate(180.189933, 81.182819) rotate(90.000000) translate(-180.189933, -81.182819) "></path>
                        <g id="Money-Plane" transform="translate(303.334811, 58.673957)">
                            <polygon id="Fill-1" fill="#BCDAAF" points="40.241579 0 27.4188132 12.3365899 26.0346972 21.9208308 18.8693648 20.1725899 -1.54554655e-13 37.9827939 109.562723 42.3166605"></polygon>
                            <polygon id="Fill-2" fill="#62B55A" points="29.7978706 13.7215879 27.2078766 22.564554 21.8237373 21.2734271 6.33833934 35.9380667 109.562723 42.3166605 40.4861821 3.60141791"></polygon>
                            <polygon id="Fill-3" fill="#BCDAAF" points="12.6766787 33.2866954 109.562723 42.3166605 40.5798442 6.30248135"></polygon>
                            <polygon id="Fill-4" fill="#62B45A" points="27.1643115 21.4908855 109.562723 42.3166605 28.529709 11.7046082"></polygon>
                            <g id="Group-7" transform="translate(43.462898, 22.508862)">
                                <mask id="mask-2" fill="white">
                                    <use xlink:href="#path-1"></use>
                                </mask>
                                <g id="Clip-6"></g>
                                <path d="M3.25150017,3.00023322 C3.26523324,2.7992741 3.27209978,2.69879454 3.28485191,2.49783542 C3.53106621,2.5821086 3.65270196,2.62316477 3.89793533,2.70743794 C3.97444814,2.53565031 4.01368548,2.44921628 4.08921736,2.27634822 C4.32267952,2.41032097 4.4394106,2.47730734 4.67287277,2.61019966 C4.80726066,2.47730734 4.87494506,2.41140139 5.00933295,2.27850907 C5.21434805,2.45245756 5.31636513,2.53889159 5.52236115,2.71284007 C5.70579571,2.62964732 5.79702253,2.58751073 5.97947615,2.50431797 C6.14427297,2.70635752 6.22569045,2.80683708 6.38852541,3.00995705 C6.60825451,2.98078556 6.71811905,2.96674003 6.93686722,2.93864897 C7.0477127,3.15581448 7.10362591,3.26493744 7.21349046,3.48210294 C7.45381916,3.51127442 7.57447397,3.52531995 7.81382174,3.55449144 C7.86483028,3.77273736 7.89033455,3.8807799 7.93938122,4.09902583 C8.18461459,4.18329901 8.30723128,4.2254356 8.55246464,4.3107892 C8.54854091,4.37237345 8.54461718,4.42423386 8.54265531,4.47285301 L10.9743894,5.12434951 C10.0778162,3.2379268 8.14930099,1.63457555 6.0922835,0.852347578 C3.98916214,0.0528328008 1.3180803,0.603849742 0.387174441,2.29039375 L2.86010772,2.95161408 C2.98468627,2.96674003 3.09160802,2.98078556 3.25150017,3.00023322" id="Fill-5" fill="#000000" mask="url(#mask-2)"></path>
                            </g>
                            <g id="Group-12" transform="translate(60.666962, 26.110280)" fill="#62B45A">
                                <path d="M20.9022133,2.11749305 C18.113344,0.662463944 10.3117537,-0.784912153 5.18584816,1.1924351 L27.305747,9.6834531 C27.305747,9.6834531 27.5936887,5.61013689 20.9022133,2.11749305" id="Fill-8"></path>
                                <path d="M0.381296385,5.26288142 C0.381296385,5.26288142 1.43436619,13.5549211 11.4951217,14.5478995 C21.5567827,15.5399213 26.5034038,11.971704 26.5034038,11.971704 L0.381296385,5.26288142 Z" id="Fill-10"></path>
                            </g>
                            <g id="Group-15" transform="translate(64.288870, 25.209925)">
                                <mask id="mask-4" fill="white">
                                    <use xlink:href="#path-3"></use>
                                </mask>
                                <g id="Clip-14"></g>
                                <path d="M2.64541588,0.240139545 C2.64541588,0.240139545 0.166672454,2.385009 0.126896141,5.03317661 L26.3210536,11.4355973 C26.3210536,11.4355973 26.6916525,10.012512 26.3462776,8.89764809 L2.64541588,0.240139545 Z" id="Fill-13" fill="#000000" mask="url(#mask-4)"></path>
                            </g>
                            <g id="Group-18" transform="translate(28.069789, 14.405672)">
                                <mask id="mask-6" fill="white">
                                    <use xlink:href="#path-5"></use>
                                </mask>
                                <g id="Clip-17"></g>
                                <polygon id="Fill-16" fill="#000000" mask="url(#mask-6)" points="1.85713343 0.188639269 0.787765033 9.85371951 4.37435962 10.7930143 5.38034463 1.56783227"></polygon>
                            </g>
                            <g id="Group-35" transform="translate(12.676679, 5.402127)" fill="#62B45A">
                                <path d="M31.8415486,9.5033203 C29.0525661,9.56645766 26.2273872,7.75556344 25.7521928,5.5955005 C25.5303736,4.58625941 25.8069516,3.69372676 26.9411069,3.07000619 C27.8255995,2.58308324 28.8214658,2.56969046 29.8229007,2.71031458 C32.3928483,3.07861583 34.6231062,4.86559438 34.8783376,6.762585 C35.0899476,8.33432255 33.8462748,9.45740222 31.8415486,9.5033203 M36.8097428,5.12962333 L28.9077804,0.576080559 L22.7952217,6.60952473 C23.0634467,7.43318027 23.5590595,8.16978277 24.2365827,8.81646238 C26.0426925,10.5441301 28.3314216,11.5725037 31.2670461,11.4883206 C33.7460385,11.4175302 35.7646864,10.562306 36.7169314,8.65096597 C37.2496688,7.58145739 37.1364389,5.93031983 36.8097428,5.12962333" id="Fill-19"></path>
                                <path d="M9.29766018,21.9833757 C10.8884475,21.5729829 12.5145032,21.4734937 14.223161,21.5662865 C15.7424836,21.7423058 17.2478845,22.0627757 18.4915572,22.9017373 C19.9811802,23.904282 20.1621624,25.5161979 18.897143,26.7645956 C17.7277194,27.919244 16.136004,28.5037428 14.4134244,28.9007429 C12.8941018,29.2527815 11.3330141,29.3742731 9.80626664,29.1963405 C8.09760881,28.9964055 6.44742216,28.6252344 5.25665193,27.5155475 C4.24872016,26.5742269 4.15498064,25.2406894 5.0886633,24.2075326 C6.14578512,23.0385349 7.64283296,22.4109878 9.29766018,21.9833757 L9.29766018,21.9833757 Z M17.94397,29.9606852 C19.6684057,29.1035477 21.1626692,28.0522151 22.1993726,26.6239715 C23.9813514,24.1683109 23.2351477,21.8073564 20.5538265,20.3398911 C18.4804199,19.2043753 16.0654673,18.8666861 13.5382129,18.9039946 C12.7418911,18.9145175 11.9464975,18.9556524 11.1576006,19.0627946 C11.1353259,19.0656645 10.289814,19.2388139 9.05727866,19.4923199 L0.642997362,28.5563573 L17.94397,29.9606852 Z" id="Fill-21"></path>
                                <path d="M12.4817408,23.7699716 C12.4771002,23.7699716 12.4715315,23.7699716 12.466891,23.7709282 C12.1912411,23.7938873 11.8747543,23.912509 11.6603599,24.0569596 C10.9317905,24.547709 10.3489349,25.2603959 10.0621477,25.9797791 C9.99253911,26.1538852 9.99903591,26.3662563 10.1716651,26.4810515 C10.3034573,26.5700178 10.4983612,26.5757575 10.6728467,26.5461021 C11.4765934,26.4150442 12.1244169,25.6698321 12.5132967,25.1436874 C12.7332597,24.8452199 13.0905836,24.3401211 12.9652882,23.9899957 C12.9058889,23.8216294 12.6896383,23.7556222 12.4817408,23.7699716 M14.0938748,23.8608511 C14.0743844,24.3133355 13.8302904,24.7600802 13.55,25.1542103 C13.1054334,25.7798442 12.613533,26.3911286 11.8849635,26.8235238 C11.1907343,27.2377431 10.0278074,27.5735191 9.22498886,27.1975648 C8.79527209,26.9966732 8.75443507,26.6054129 8.88158669,26.2447647 C9.22591697,25.272832 9.88766224,24.373603 10.8853848,23.7221403 C11.3132453,23.4418487 11.815355,23.1701667 12.3480924,23.0477185 C13.1165708,22.8697859 14.1263588,23.1213787 14.0938748,23.8608511" id="Fill-23"></path>
                                <path d="M16.9138563,24.6663308 C16.9073595,24.3343813 16.6688342,24.1937572 16.317079,24.2655042 C16.088763,24.3104656 15.8984996,24.4156946 15.730511,24.5429259 C15.0771187,25.0336754 14.631624,25.6296538 14.3132809,26.2858996 C14.2158289,26.4877479 14.1202332,26.7297744 14.3847457,26.8761383 C14.639977,27.0167624 14.9295486,26.9287527 15.1829237,26.7986515 C15.291513,26.7431672 15.3917494,26.6771599 15.4836326,26.6044563 C16.0989722,26.1204032 16.5435388,25.5502538 16.8414634,24.9121838 C16.8860129,24.8174778 16.8999346,24.7151187 16.9138563,24.6663308 M17.9115788,24.4166512 C17.8837354,25.0441983 17.4707247,25.6468731 17.0131645,26.1548418 C16.3402818,26.9038804 15.2219045,27.8203288 13.9680225,27.6701384 C13.4204353,27.6041311 13.1280794,27.3343624 13.1373605,26.8933576 C13.149426,26.3059888 13.5327371,25.7234032 13.9448197,25.2412634 C14.403308,24.7036392 14.9889479,24.2014102 15.682249,23.8503282 C16.0293637,23.6752656 16.4340213,23.5193354 16.8470321,23.5135957 C17.1013353,23.5107258 17.3584229,23.5671667 17.5505425,23.6943981 C17.8326891,23.8799837 17.9245724,24.1420994 17.9115788,24.4166512" id="Fill-25"></path>
                                <polygon id="Fill-27" points="8.01064453 23.3412115 7.7693349 23.9764116 8.71786738 23.7305586 6.0560365 26.9419542 7.16884516 26.9888289 10.6659786 22.7806283 9.63298776 22.7050548"></polygon>
                                <path d="M28.9113072,6.30971795 C28.9038823,6.33841675 28.8992417,6.36807217 28.8973855,6.39677097 C28.8871762,6.63305775 29.1563293,6.82916621 29.4533258,6.80620717 C29.5823336,6.79568428 29.7020603,6.74211319 29.8087934,6.68088908 C30.2635693,6.41973001 30.6598739,6.00455405 30.8102284,5.57407207 C30.8538497,5.44684072 30.864059,5.30812986 30.8083722,5.18663828 C30.7211295,4.99722621 30.4965259,4.91686957 30.2468632,4.96757078 C30.0900119,4.99913946 29.9498667,5.07471296 29.8227151,5.15793948 C29.4282667,5.42005518 29.1331264,5.77400703 28.9660659,6.15761431 C28.9437912,6.2073589 28.9243008,6.25806011 28.9113072,6.30971795 M28.1224103,6.33650349 C28.2727648,5.78739981 28.5966766,5.26412504 29.1192047,4.86903824 C29.7196945,4.41368396 30.7304106,4.12382609 31.3188349,4.71119484 C31.7615452,5.15315635 31.5443665,5.80940222 31.2288078,6.27719264 C31.034832,6.56513726 30.799091,6.84160236 30.481676,7.05110359 C30.0139066,7.35913736 29.398567,7.46149641 28.8426268,7.2921735 C28.3433014,7.14006987 28.0026836,6.778465 28.1224103,6.33650349" id="Fill-29"></path>
                                <path d="M33.3080615,6.81089464 C33.3646765,6.5832175 33.2755775,6.25605119 32.9108288,6.26944397 C32.7122124,6.27709698 32.5367988,6.37945603 32.3892287,6.48755484 C32.0235518,6.75445367 31.7330521,7.09214287 31.5947631,7.46809714 C31.5492856,7.59341523 31.5214421,7.73021284 31.5789852,7.85074779 C31.6690123,8.04302974 31.9752899,8.07938156 32.2008216,8.01337432 C32.5924857,7.89857912 32.8625668,7.56088992 33.0556145,7.28633808 C33.1604914,7.13806095 33.2662964,6.97734768 33.3080615,6.81089464 M30.7891602,7.73882248 C30.8058663,7.39348026 30.9970577,7.05100793 31.2207332,6.7554103 C31.617966,6.22926565 32.3372543,5.56249688 33.1939035,5.72703667 C33.7424189,5.8322656 34.1322267,6.29240301 34.0227093,6.74201752 C33.8686424,7.37243447 33.4305726,7.97893576 32.7725398,8.37402256 C32.4913212,8.54238885 32.1414223,8.65527079 31.7989482,8.62465874 C31.2560015,8.57587078 30.7678136,8.18843699 30.7891602,7.73882248" id="Fill-31"></path>
                                <polygon id="Fill-33" points="27.6841549 4.05781885 27.9737265 3.63594651 28.88235 3.51254167 29.4160156 3.80526942 27.098515 6.34702639 26.5035939 6.02559984 28.2642261 4.070255"></polygon>
                            </g>
                        </g>
                        <rect id="Text" fill="#D7D7D7" x="121.333925" y="95.588491" width="157.553007" height="3.60141791" rx="1.14048"></rect>
                        <rect id="Text-Copy" fill="#D7D7D7" x="42.3992719" y="208.712533" width="157.553007" height="3.60141791" rx="1.14048"></rect>
                        <rect id="Text" fill="#D7D7D7" x="121.333925" y="84.7842373" width="179.284456" height="3.60141791" rx="1.14048"></rect>
                        <rect id="Text-Copy-2" fill="#D7D7D7" x="42.3992719" y="197.908279" width="179.284456" height="3.60141791" rx="1.14048"></rect>
                        <rect id="Text-Copy-2" fill="#D7D7D7" x="42.3992719" y="187.908279" width="179.284456" height="3.60141791" rx="1.14048"></rect>
                        <rect id="Text" fill="#D7D7D7" x="121.333925" y="65.293505" width="111.477124" height="9.50853242" rx="1.14048"></rect>
                        <g id="Avatar" transform="translate(26.199250, 43.366721)">
                            <path d="M76.7909049,38.2136371 C76.7909049,59.3186034 59.6008334,76.4272742 38.3954525,76.4272742 C17.1900715,76.4272742 0,59.3186034 0,38.2136371 C0,17.1086707 17.1900715,0 38.3954525,0 C59.6008334,0 76.7909049,17.1086707 76.7909049,38.2136371 Z" id="Container" stroke="#979797" stroke-width="1.14048" fill="#FFFFFF"></path>
                            <mask id="mask-8" fill="white">
                                <use xlink:href="#path-7"></use>
                            </mask>
                            <g id="Clip-7"></g>
                            <path d="M48.7522298,61.4355123 L48.7522298,54.4113407 L27.7161035,54.4113407 L27.7161035,61.4355123 C27.7161035,64.1903425 26.0190337,66.6588832 23.4557847,67.6322672 L18.1536446,70.4516133 L38.2345677,87.624947 L58.3154907,70.4516133 L53.0125487,67.6322672 C50.4484976,66.6588832 48.7522298,64.1903425 48.7522298,61.4355123" id="Fill-6" fill="#EEB1A3" mask="url(#mask-8)"></path>
                            <path d="M49.9404193,65.225178 C49.1849184,64.1372781 48.7526308,62.8235725 48.7526308,61.4356736 L48.7526308,54.4115019 L27.7157025,54.4115019 C29.2836474,55.4606922 39.415539,68.4348454 49.9404193,65.225178" id="Fill-9" fill="#E89785" mask="url(#mask-8)"></path>
                            <path d="M51.9078493,36.1772039 C51.9078493,36.1772039 53.8864273,33.4610833 55.3725664,34.9973688 C56.6806575,36.3505904 54.3692421,46.6150746 51.9174735,46.3795915 C51.9174735,46.3795915 51.3825276,49.4545819 51.1162576,50.5634494 C50.6615135,52.4529597 50.3439145,54.2610185 46.5776386,57.1900417 C43.8740364,59.2908416 41.5770573,61.2029324 38.2430691,61.2029324 L38.2366529,61.2029324 L38.2310388,61.2029324 L38.2254247,61.2029324 C34.8906344,61.2029324 32.5936553,59.2908416 29.8908551,57.1900417 C26.1245793,54.2610185 25.8061782,52.4529597 25.3530381,50.5634494 C25.0867682,49.4545819 24.5510203,46.3795915 24.5510203,46.3795915 C22.0984497,46.6150746 19.7870342,36.3505904 21.0951253,34.9973688 C22.5820664,33.4610833 24.5606445,36.1772039 24.5606445,36.1772039" id="Fill-12" fill="#EEB1A3" mask="url(#mask-8)"></path>
                            <path d="M53.1970128,36.4450256 C53.1970128,36.4450256 55.4330385,16.0555729 38.2425879,16.0555729 L38.248202,16.0555729 L38.2369737,16.0555729 L38.2425879,16.0555729 L38.2369737,16.0555729 L38.2425879,16.0555729 L38.2313596,16.0555729 L38.2369737,16.0555729 L38.2313596,16.0555729 L38.2369737,16.0555729 L38.2257455,16.0555729 L38.2313596,16.0555729 L38.2257455,16.0555729 L38.2313596,16.0555729 L38.2193293,16.0555729 L38.2257455,16.0555729 C21.0344928,16.0555729 23.2713206,36.4450256 23.2713206,36.4450256" id="Fill-15" fill="#EEB1A3" mask="url(#mask-8)"></path>
                            <path d="M53.9802634,32.0575393 C54.1029721,31.143026 54.2168587,30.2260934 54.3098927,29.3607735 C54.994816,23.4624047 54.7333582,23.1406315 54.54729,22.4849884 C54.2962584,21.6003137 51.9920611,19.6696746 51.3801215,18.9987089 C51.3801215,18.9987089 51.6407773,18.0817763 51.2854834,16.8293609 C51.2734531,16.7898448 51.2622249,16.7503288 51.2526007,16.7100064 C50.9261794,15.4583974 50.2444642,14.3116268 49.2259016,13.5213066 C48.1407714,12.6793738 46.8374924,12.1858269 45.5229851,11.8067958 C41.0541416,10.5156708 36.0864431,10.2721232 31.4772464,10.8164763 C31.2262149,10.8455085 30.9687671,10.8817987 30.7482122,11.0067983 C30.2605854,11.2834104 30.1122121,11.8696989 29.8130594,12.3076007 C29.4762119,12.7995347 29.0254779,13.277759 28.4785017,13.5277582 C28.0013011,13.7471124 27.4864056,13.8930797 27.0477018,14.1817885 C26.2368618,14.7156578 26.1269853,15.504365 25.7556511,16.3180721 C25.0314289,17.8987124 23.4402255,18.8075805 22.5804624,20.2858017 C21.6356854,21.9083773 21.9893752,24.1583703 22.0166438,25.9503002 L22.0174459,25.9503002 C22.0062176,29.5527083 23.8123618,39.3809036 23.8123618,39.3809036 L24.5822989,32.6438278 L25.8984102,31.3075416 C25.8984102,31.3075416 26.7734117,26.5382016 27.1134673,24.8067554 C28.9091853,23.0946639 33.2200312,21.8745064 38.2647235,21.8527323 C43.3086138,21.8293453 47.630688,23.0115997 49.4416444,24.7067557 C49.7961363,26.4357826 50.7128427,31.1978645 50.7128427,31.1978645 L52.0417862,32.5212475 L52.8702707,39.2518717 C52.8702707,39.2518717 53.4926365,35.6946247 53.9778573,32.0744747 L53.9786594,32.0744747 C53.9794614,32.0688296 53.9794614,32.0631844 53.9802634,32.0575393" id="Fill-18" fill="#905C3C" mask="url(#mask-8)"></path>
                        </g>
                    </g>
                </g>
            </g>
            <g id="CTA" transform="translate(90.000000, 357.000000)">
                <rect id="Shadow" fill="#DDB400" x="2.43349818" y="2.43471216" width="180.078865" height="36.5206824" rx="18.2603412"></rect>
                <rect id="Btn" fill="#FFDD00" x="0" y="0" width="180.078865" height="36.5206824" rx="18.2603412"></rect>
            </g>
            <rect id="Header-Copy-2" fill="#D7D7D7" x="40.7901639" y="42.4404145" width="85.1724362" height="14.608273" rx="1.6"></rect>
        </g>
    </g>
</svg>