<?xml version="1.0" encoding="UTF-8"?>
<svg width="403px" height="449px" viewBox="0 0 403 449" version="1.1" xmlns="http://www.w3.org/2000/svg" xmlns:xlink="http://www.w3.org/1999/xlink">
    <title>512D0335-E0D1-4FDA-8CD5-C834058AF0D3@1x</title>
    <g id="Instructional" stroke="none" stroke-width="1" fill="none" fill-rule="evenodd">
        <g id="Receive-method">
            <g id="Table_8_" fill-rule="nonzero">
                <path d="M82,28 L388,28 C396.28,28 403,34.72 403,43 L403,406 C403,414.28 396.28,421 388,421 L82,421 C73.72,421 67,414.28 67,406 L67,43 C67,34.72 73.72,28 82,28 Z" id="T_shadow_14_" fill="#EFEFEF"></path>
                <path d="M382,15 L382,434 C382,442.28 375.28,449 367,449 L15,449 C6.72,449 0,442.28 0,434 L0,15 C0,6.72 6.72,0 15,0 L367,0 C375.28,0 382,6.72 382,15 Z" id="T_outline_8_" fill="#D8D8D8"></path>
                <path d="M15,3 L367,3 C373.63,3 379,8.37 379,15 L379,434 C379,440.63 373.63,446 367,446 L15,446 C8.37,446 3,440.63 3,434 L3,15 C3,8.37 8.37,3 15,3 Z" id="T_bg_8_" fill="#FFFFFF"></path>
            </g>
            <g id="CTA_12_" transform="translate(96.500000, 378.000000)">
                <path d="M166,43 L20,43 C11,44 2,35.05 2,24 L2,24 C2,12.95 10.95,4 22,4 L168,4 C179.05,4 188,12.95 188,24 L188,24 C188,35.05 179.05,44 166,43 Z" id="cta_shadow_12_" fill="#DFB706"></path>
                <path d="M20,0 L166,0 C177.05,0 186,8.95 186,20 L186,20 C186,31.05 177.05,40 166,40 L20,40 C8.95,40 0,31.05 0,20 L0,20 C0,8.95 8.95,0 20,0 Z" id="cta_bg_12_" fill="#FFDD00" fill-rule="nonzero"></path>
            </g>
            <g id="Copy_9_" transform="translate(34.000000, 55.000000)" fill="#D8D8D8" fill-rule="nonzero">
                <path d="M3,44 L257,44 C258.66,44 260,45.34 260,47 L260,47 C260,48.66 258.66,50 257,50 L3,50 C1.34,50 0,48.66 0,47 L0,47 C0,45.34 1.34,44 3,44 Z" id="Path"></path>
                <path d="M3,62 L177,62 C178.66,62 180,63.34 180,65 L180,65 C180,66.66 178.66,68 177,68 L3,68 C1.34,68 0,66.66 0,65 L0,65 C0,63.34 1.34,62 3,62 Z" id="Path"></path>
                <path d="M2,0 L74,0 C75.1,0 76,0.9 76,2 L76,18 C76,19.1 75.1,20 74,20 L2,20 C0.9,20 0,19.1 0,18 L0,2 C0,0.9 0.9,0 2,0 Z" id="Path"></path>
            </g>
            <g id="Highlight_14_" transform="translate(34.000000, 155.000000)">
                <path d="M279,31 L279,177 C279,185.28 272.28,192 264,192 L29,192 C20.72,192 14,185.28 14,177 L14,31 C14,22.72 20.72,16 29,16 L264,16 C272.28,16 279,22.72 279,31 Z" id="H_shadow_12_" fill="#EFEFEF" fill-rule="nonzero"></path>
                <path d="M265,15 L265,161 C265,169.28 258.28,176 250,176 L15,176 C6.72,176 0,169.28 0,161 L0,15 C0,6.72 6.72,0 15,0 L250,0 C258.28,0 265,6.72 265,15 Z" id="H_outline_9_" fill="#2D4E9D" fill-rule="nonzero"></path>
                <path d="M15,3 L250,3 C256.63,3 262,8.37 262,15 L262,161 C262,167.63 256.63,173 250,173 L15,173 C8.37,173 3,167.63 3,161 L3,15 C3,8.37 8.37,3 15,3 Z" id="H_bg_12_" fill="#FFFFFF" fill-rule="nonzero"></path>
                <path d="M21,27 L93,27 C94.1,27 95,27.9 95,29 L95,45 C95,46.1 94.1,47 93,47 L21,47 C19.9,47 19,46.1 19,45 L19,29 C19,27.9 19.9,27 21,27 Z" id="Path" fill="#D8D8D8" fill-rule="nonzero"></path>
                <path d="M246,66 L246,152 C246,154.76 243.76,157 241,157 L145,157 C142.24,157 140,154.76 140,152 L140,66 C140,63.24 142.24,61 145,61 L241,61 C243.76,61 246,63.24 246,66 Z" id="Path" fill="#2D4E9D" fill-rule="nonzero"></path>
                <path d="M145,64 L241,64 C242.1,64 243,64.9 243,66 L243,152 C243,153.1 242.1,154 241,154 L145,154 C143.9,154 143,153.1 143,152 L143,66 C143,64.9 143.9,64 145,64 Z" id="Path" fill="#FFFFFF" fill-rule="nonzero"></path>
                <path d="M201.24,84 L207.06,93.71 L207.06,98 C207.06,100.15 205.32,101.89 203.17,101.89 C201.02,101.89 199.28,100.15 199.28,98 L199.28,93.75 L197.36,84 L201.24,84 Z M189.1,93.71 L191,84 L194.9,84 L196.84,93.71 L196.84,98 C196.84,100.15 195.1,101.89 192.95,101.89 C190.8,101.89 189.06,100.15 189.06,98 L189.1,93.71 Z M188.64,84 L186.72,93.71 L186.72,98 C186.72,100.15 184.97,101.9 182.82,101.9 C180.67,101.9 178.92,100.15 178.92,98 L178.92,98 L178.92,93.75 L184.74,84.04 L188.64,84 Z M168.76,98 L168.76,93.75 L178.44,84.06 L182.32,84.06 L176.54,93.75 L176.54,98 C176.54,100.15 174.8,101.89 172.65,101.89 C170.5,101.89 168.76,100.15 168.76,98 Z M214.200109,132.51 C214.21,133.35 213.53,134.03 212.69,134.04 C212.69,134.04 212.69,134.04 212.69,134.04 L173.29,134.04 C172.45,134.03 171.78,133.35 171.78,132.51 L171.78,107.51 C171.79,106.68 172.46,106.01 173.29,105.999889 L212.69,105.999889 C213.52,105.99 214.19,106.66 214.200109,107.49 C214.200109,107.5 214.200109,107.5 214.200109,107.51 L214.200109,132.51 Z M217.2,98 C217.2,100.15 215.45,101.9 213.29,101.890043 C211.14,101.890043 209.4,100.15 209.4,98 L209.4,93.75 L203.66,84 L207.56,84 L217.24,93.71 L217.2,98 Z M191.3,123.67 L188.47,114.89 L186.27,114.89 L183.44,123.67 L181.09,114.89 L178.92,114.89 L182.24,127.23 L184.41,127.23 L187.41,118.08 L190.41,127.23 L192.58,127.23 L195.88,114.89 L193.71,114.89 L191.3,123.67 Z M204.89,122.35 C204.66,123.99 203.14,125.13 201.5,124.9 C200.18,124.71 199.14,123.67 198.95,122.35 L198.95,114.89 L196.78,114.89 L196.78,122.27 C196.78,125.11 199.08,127.41 201.92,127.41 C204.76,127.41 207.06,125.11 207.06,122.27 L207.06,114.87 L204.89,114.87 L204.89,122.35 Z" id="WU_location" fill="#2E4E9D" fill-rule="nonzero"></path>
                <path d="M125,66 L125,152 C125,154.76 122.76,157 120,157 L24,157 C21.24,157 19,154.76 19,152 L19,66 C19,63.24 21.24,61 24,61 L120,61 C122.76,61 125,63.24 125,66 Z" id="Path" fill="#2D4E9D" fill-rule="nonzero"></path>
                <path d="M24,64 L120,64 C121.1,64 122,64.9 122,66 L122,152 C122,153.1 121.1,154 120,154 L24,154 C22.9,154 22,153.1 22,152 L22,66 C22,64.9 22.9,64 24,64 Z" id="Path" fill="#FFFFFF" fill-rule="nonzero"></path>
                <path d="M80.81,120.13 L87.3,120.13 L87.3,99.26 L80.81,99.26 L80.81,120.13 Z M68.76,120.13 L75.25,120.13 L75.25,99.26 L68.76,99.26 L68.76,120.13 Z M56.7,120.13 L63.19,120.13 L63.19,99.26 L56.7,99.26 L56.7,120.13 Z M72,84 L47,95.13 L47,99.3 L51.18,99.3 L51.18,120.17 L49.79,120.17 L49.79,124.34 L94.29,124.34 L94.29,120.17 L92.9,120.17 L92.9,99.26 L97,99.26 L97,95.09 L72,84 Z M47,134 L97,134 L97,128.43 L47,128.43 L47,134 Z" id="Bank" fill="#2E4E9D"></path>
            </g>
        </g>
    </g>
</svg>