<?xml version="1.0" encoding="UTF-8"?>
<svg width="416px" height="449px" viewBox="0 0 416 449" version="1.1" xmlns="http://www.w3.org/2000/svg" xmlns:xlink="http://www.w3.org/1999/xlink">
    <title>3412ADE4-BBE3-4557-896B-F79E543B45A4@1x</title>
    <defs>
        <path d="M8.95106135,0.952712812 L398.71109,0.952712812 C403.515967,0.952712812 407.41109,4.84783577 407.41109,9.65271344 L407.41109,211.492728 C407.41109,216.297606 403.515967,220.192729 398.71109,220.192729 L8.95106135,220.192729 C4.14618368,220.192729 0.251060723,216.297606 0.251060723,211.492728 L0.251060723,9.65271344 C0.251060723,4.84783577 4.14618368,0.952712812 8.95106135,0.952712812 Z" id="path-1"></path>
        <path d="M5.9963568,1.00716336 C2.54882179,1.53325148 0.202099433,4.61874425 0.758057946,7.89554179 L0.758057946,7.89554179 C1.31327617,11.1723393 4.55871175,13.4011806 8.00920793,12.8750925 L8.00920793,12.8750925 C16.9793135,11.5014961 14.0174094,10.5210591 13.2489874,5.98390073 L13.2489874,5.98390073 C12.6478711,2.43983917 14.0344361,0.557737809 10.3951657,0.557737809 L10.3951657,0.557737809 C9.37578504,0.557737809 7.96034872,0.705436346 5.9963568,1.00716336" id="path-3"></path>
        <path d="M6.94096807,0.710359631 C-2.02839724,2.0832527 0.931286031,3.06439298 1.70192892,7.60084805 L1.70192892,7.60084805 C2.47109123,12.1380064 -0.0155461102,13.9518851 8.9530789,12.5789921 L8.9530789,12.5789921 C12.4028348,12.0514973 14.7488169,8.96600452 14.1928583,5.68920698 L14.1928583,5.68920698 C13.6916814,2.73523624 11.0059057,0.633697057 7.9544264,0.633697057 L7.9544264,0.633697057 C7.61981488,0.633697057 7.28150191,0.658313479 6.94096807,0.710359631" id="path-5"></path>
    </defs>
    <g id="Instructional" stroke="none" stroke-width="1" fill="none" fill-rule="evenodd">
        <g id="Instructional-/-send-n-receive">
            <g id="Illustration-/-SMO-/-Step-05.1" transform="translate(4.000000, 0.000000)">
                <g id="Illustration-/-SMO-/-Step-05" transform="translate(19.853076, 0.000000)">
                    <path d="M31.2373804,23.1749467 L366.725407,23.1749467 C375.561963,23.1749467 382.725407,30.3383907 382.725407,39.1749467 L382.725407,405.174947 C382.725407,414.011503 375.561963,421.174947 366.725407,421.174947 L31.2373804,421.174947 C22.4008244,421.174947 15.2373804,414.011503 15.2373804,405.174947 L15.2373804,39.1749467 C15.2373804,30.3383907 22.4008244,23.1749467 31.2373804,23.1749467 Z" id="Shadow" fill="#E6E6E6"></path>
                    <path d="M339.882011,1.70366058 C347.185425,1.70366058 353.797426,4.66395403 358.583573,9.45010099 C363.36972,14.236248 366.330013,20.8482484 366.330013,28.1516625 L366.330013,28.1516625 L366.330013,421.471658 C366.330013,428.775073 363.36972,435.387073 358.583573,440.17322 C353.797426,444.959367 347.185425,447.91966 339.882011,447.91966 L339.882011,447.91966 L28.0739885,447.91966 C20.7705744,447.91966 14.158574,444.959367 9.37242699,440.17322 C4.58628002,435.387073 1.62598657,428.775073 1.62598657,421.471658 L1.62598657,421.471658 L1.62598657,28.1516625 C1.62598657,20.8482484 4.58628002,14.236248 9.37242699,9.45010099 C14.158574,4.66395403 20.7705744,1.70366058 28.0739885,1.70366058 L28.0739885,1.70366058 Z" id="Device" stroke="#D8D8D8" stroke-width="2.7840002" fill="#FFFFFF"></path>
                </g>
                <rect id="Text" fill="#D7D7D7" x="50.3073182" y="106.773018" width="199.249542" height="5.99006537" rx="2.7840002"></rect>
                <rect id="Text-Copy" fill="#D7D7D7" x="50.7500017" y="44.8294939" width="199.249542" height="17.3533525" rx="2.7840002"></rect>
                <rect id="Text" fill="#D7D7D7" x="50.3073182" y="84.8922333" width="296.627137" height="5.99006537" rx="2.7840002"></rect>
                <g id="Hands-Focus" transform="translate(0.000000, 126.410521)">
                    <mask id="mask-2" fill="white">
                        <use xlink:href="#path-1"></use>
                    </mask>
                    <use id="Frame" stroke="#2D4E9D" stroke-width="4.1760003" fill="#FFFFFF" stroke-linejoin="round" xlink:href="#path-1"></use>
                    <g id="Hands" mask="url(#mask-2)">
                        <g transform="translate(-18.249606, 23.282001)">
                            <g id="Group-21" stroke-width="1" fill="none" transform="translate(148.358398, 10.579350)">
                                <path d="M171.692921,53.1468364 L197.034716,72.1823891 C197.034716,72.1823891 203.063073,69.6795145 200.26833,62.9340573 C199.834975,61.8913226 199.242461,60.9194535 198.541214,60.0309096 L186.350553,44.5596559" id="Fill-2" fill="#413020"></path>
                                <path d="M165.844367,61.7924225 L191.185373,80.8279752 C191.185373,80.8279752 196.382478,78.670083 194.888586,72.9626879 C194.409532,71.1342033 193.341903,69.5074127 191.900802,68.2660991 L171.927091,51.0582522" id="Fill-4" fill="#413020"></path>
                                <path d="M155.611444,66.343231 L180.952451,85.3787837 C180.952451,85.3787837 188.194201,82.3728422 183.124739,74.0722386 L161.694956,55.6090607" id="Fill-6" fill="#413020"></path>
                                <polygon id="Fill-8" fill="#B1DAAD" points="47.9960016 110.666928 163.52127 110.666928 163.52127 40.9189624 47.9960016 40.9189624"></polygon>
                                <polygon id="Fill-10" fill="#B1DAAD" points="0.37347295 110.666928 115.898742 110.666928 115.898742 40.9189624 0.37347295 40.9189624"></polygon>
                                <polygon id="Fill-11" fill="#62B55B" points="135.206348 75.5987273 135.961173 74.3060167 134.652442 73.5592038 135.044037 72.1169749 133.584025 71.7307192 133.584025 70.2370933 132.072799 70.2370933 131.68278 68.7948644 130.223557 69.1818988 129.468732 67.8884095 128.16 68.6352224 127.090796 67.5792492 126.023956 68.6352224 124.715225 67.8884095 123.959612 69.1818988 122.501176 68.7948644 122.109581 70.2370933 120.599143 70.2370933 120.599143 71.7307192 119.138344 72.1169749 119.529939 73.5592038 118.221996 74.3060167 118.976821 75.5987273 117.909192 76.6547005 118.976821 77.7106737 118.221996 79.0033843 119.529939 79.7501972 119.138344 81.1924261 120.599143 81.5786818 120.599143 83.0723077 122.109581 83.0723077 122.501176 84.5145366 123.959612 84.1275022 124.715225 85.4202127 126.023956 84.6741786 127.090796 85.7301518 128.16 84.6741786 129.468732 85.4202127 130.223557 84.1275022 131.68278 84.5145366 132.072799 83.0723077 133.584025 83.0723077 133.584025 81.5786818 135.044037 81.1924261 134.652442 79.7501972 135.961173 79.0033843 135.20556 77.7106737 136.273976 76.6547005"></polygon>
                                <polygon id="Fill-12" fill="#62B55B" points="28.688238 75.4660298 27.9334129 76.7587403 29.2421441 77.5055533 28.850549 78.9477822 30.3097724 79.3340379 30.3097724 80.8276637 31.8217863 80.8276637 32.2118056 82.2698926 33.671029 81.8828582 34.4258541 83.1763475 35.7345852 82.4295346 36.8037894 83.4855078 37.8706299 82.4295346 39.179361 83.1763475 39.934974 81.8828582 41.3934095 82.2698926 41.7850046 80.8276637 43.2954427 80.8276637 43.2954427 79.3340379 44.7562419 78.9477822 44.3646469 77.5055533 45.6725901 76.7587403 44.917765 75.4660298 45.9853934 74.4100565 44.917765 73.3540833 45.6725901 72.0613727 44.3646469 71.3145598 44.7562419 69.8723309 43.2954427 69.4860752 43.2954427 67.9924494 41.7850046 67.9924494 41.3934095 66.5502204 39.934974 66.9372549 39.179361 65.6445443 37.8706299 66.3905785 36.8037894 65.3346052 35.7345852 66.3905785 34.4258541 65.6445443 33.671029 66.9372549 32.2118056 66.5502204 31.8217863 67.9924494 30.3097724 67.9924494 30.3097724 69.4860752 28.850549 69.8723309 29.2421441 71.3145598 27.9334129 72.0613727 28.6890259 73.3540833 27.6206096 74.4100565"></polygon>
                                <path d="M47.848267,43.7179144 L48.4927836,43.7179144 L48.4927836,48.0009917 L73.7778478,48.0009917 C64.5127246,52.3191123 57.95725,63.0182392 57.95725,75.5333909 C57.95725,88.0477638 64.5127246,98.746112 73.7778478,103.064233 L47.848267,103.064233 L47.848267,107.346531 L160.27702,107.346531 L160.27702,43.7179144 L151.484647,43.7179144 L151.483859,43.7179144 L151.483071,43.7179144 L47.848267,43.7179144 Z M79.9236052,98.4385092 L79.9236052,92.8736238 C76.5733795,92.53565 73.7494828,91.6471062 71.4534909,90.205656 L74.8974788,83.5824611 C76.8830312,85.0838744 78.8378548,85.8361385 80.7603737,85.8361385 C81.9398864,85.8361385 82.900358,85.566694 83.646516,85.03092 C84.3910981,84.4943672 84.7637832,83.8877277 84.7637832,83.2141165 C84.7637832,82.6004683 84.469102,82.0187486 83.8789517,81.4658422 C83.2895893,80.9144934 82.5150663,80.4698321 81.5522309,80.1326371 L78.8063381,79.2121649 C75.7350352,78.170209 73.5162592,76.8899583 72.1515859,75.3714127 C70.7853367,73.8536459 70.1030001,71.8826516 70.1030001,69.4607661 C70.1030001,67.988945 70.275554,66.6861108 70.6159344,65.5514847 C70.9571028,64.4168586 71.5157364,63.4044949 72.2902594,62.5151723 C73.0671461,61.6258497 74.082772,60.8439935 75.3395005,60.1696035 C76.5946533,59.4944348 78.1247893,58.8815653 79.9236052,58.3302165 L79.9236052,52.6259364 L84.2051496,52.6259364 L84.2051496,58.0997091 C85.1664091,58.0997091 86.1914899,58.2149628 87.2764524,58.4439127 C88.3629908,58.6751989 89.432195,58.9812442 90.4872167,59.364385 C91.5430263,59.7475257 92.5279233,60.192187 93.4419078,60.6983688 C94.357468,61.2045507 95.1107173,61.733316 95.6992917,62.2854436 L91.9291059,69.2310374 C89.0145987,66.6861108 86.1757315,65.4128688 83.4140803,65.4128688 C82.2660843,65.4128688 81.2662169,65.7196928 80.4121142,66.333341 C79.5587994,66.9462104 79.131748,67.7428628 79.131748,68.7248556 C79.131748,70.0736355 80.1402826,71.0704244 82.1573517,71.7152222 L84.8102703,72.5430242 C86.3916209,73.0328525 87.7413238,73.570184 88.8593789,74.1519038 C89.9766461,74.735181 90.8914184,75.4103498 91.6044839,76.1766312 C92.3175493,76.9429127 92.8454541,77.8096517 93.1874104,78.775291 C93.5293666,79.7409302 93.6987689,80.8521941 93.6987689,82.11064 C93.6987689,83.4282703 93.5049412,84.7015124 93.1172857,85.92803 C92.7296302,87.1545475 92.13948,88.2510153 91.3491986,89.2166545 C90.5573414,90.1830725 89.5732323,90.9952997 88.3937196,91.6548936 C87.2149949,92.3137087 85.8180169,92.7202117 84.2051496,92.8736238 L84.2051496,98.4385092 L79.9236052,98.4385092 Z M155.943473,97.1792845 C155.943473,100.369009 153.902766,103.064233 151.483859,103.064233 C149.066528,103.064233 147.025033,100.369009 147.025033,97.1792845 C147.025033,93.9887813 149.066528,91.2943364 151.483859,91.2943364 C153.902766,91.2943364 155.943473,93.9887813 155.943473,97.1792845 L155.943473,97.1792845 Z M151.483859,48.0009917 C153.902766,48.0009917 155.943473,50.6954366 155.943473,53.8859398 C155.943473,57.0756642 153.902766,59.7708879 151.483859,59.7708879 C149.066528,59.7708879 147.025033,57.0756642 147.025033,53.8859398 C147.025033,50.6954366 149.066528,48.0009917 151.483859,48.0009917 L151.483859,48.0009917 Z M144.316172,48.0009917 C143.294243,49.6620469 142.691486,51.6922255 142.691486,53.8859398 C142.691486,59.5014434 146.626347,64.0539652 151.483859,64.0539652 C153.113273,64.0539652 154.636317,63.5399959 155.943473,62.6475583 L155.943473,88.4176659 C154.636317,87.5252284 153.113273,87.0112591 151.483859,87.0112591 C146.626347,87.0112591 142.691486,91.5637809 142.691486,97.1792845 C142.691486,99.3737775 143.294243,101.403177 144.316172,103.064233 L92.0260198,103.064233 C101.288779,98.746112 107.84583,88.0477638 107.84583,75.5333909 C107.84583,63.0182392 101.288779,52.3191123 92.0260198,48.0009917 L144.316172,48.0009917 Z" id="Fill-13" fill="#62B55B"></path>
                                <path d="M116.04624,107.346531 L115.401723,107.346531 L115.401723,103.063454 L90.1166591,103.063454 C99.3817823,98.7453333 105.937257,88.0462063 105.937257,75.5310547 C105.937257,63.0166817 99.3817823,52.3183335 90.1166591,48.0002129 L116.04624,48.0002129 L116.04624,43.7179144 L3.61748736,43.7179144 L3.61748736,107.346531 L12.40986,107.346531 L12.4114359,107.346531 L116.04624,107.346531 Z M83.9709017,52.6259364 L83.9709017,58.1908218 C87.3219153,58.5287955 90.1450241,59.4173394 92.441016,60.8587895 L88.9970281,67.4819844 C87.0114757,65.9805712 85.0566521,65.2283071 83.1341331,65.2283071 C81.9546205,65.2283071 80.9941489,65.4977516 80.2479909,66.0335256 C79.5034088,66.5700783 79.1307237,67.1767178 79.1307237,67.8503291 C79.1307237,68.4639772 79.4254049,69.045697 80.0155552,69.5986033 C80.6049176,70.1499522 81.3794406,70.5946135 82.3422759,70.9318085 L85.0873809,71.8522807 C88.1594717,72.8942366 90.3774598,74.1744873 91.742921,75.6930329 C93.1091702,77.2107997 93.7915068,79.1817939 93.7915068,81.6036794 C93.7915068,83.0755005 93.6189529,84.3783347 93.2785725,85.5129608 C92.9374041,86.6475869 92.3787705,87.6599506 91.6042475,88.5492732 C90.8273607,89.4385958 89.8117349,90.2204521 88.5550063,90.8948421 C87.2998536,91.5700108 85.7697176,92.1828802 83.9709017,92.7342291 L83.9709017,98.4385092 L79.6893573,98.4385092 L79.6893573,92.9647365 C78.7280978,92.9647365 77.703017,92.8494828 76.6180545,92.6205328 C75.5315161,92.3892467 74.4623119,92.0832013 73.4072902,91.7000606 C72.3514806,91.3169199 71.3665836,90.8722586 70.4525991,90.3660767 C69.5370389,89.8598949 68.7837896,89.3311295 68.1952152,88.7790019 L71.9654009,81.8334081 C74.8799082,84.3783347 77.7187754,85.6515768 80.4804266,85.6515768 C81.6284226,85.6515768 82.62829,85.3447527 83.4823927,84.7311046 C84.3357075,84.1182351 84.7627589,83.3215828 84.7627589,82.33959 C84.7627589,80.99081 83.7542243,79.9940211 81.7371552,79.3492233 L79.0842366,78.5214213 C77.5028859,78.031593 76.1531831,77.4942615 75.035128,76.9125418 C73.9178608,76.3292645 73.0030884,75.6540958 72.2892351,74.8878143 C71.5769576,74.1215329 71.0490528,73.2547938 70.7070965,72.2891546 C70.3651403,71.3235153 70.195738,70.2122515 70.195738,68.9538055 C70.195738,67.6361752 70.3895657,66.3629332 70.7772212,65.1364156 C71.1648766,63.909898 71.7550269,62.8134302 72.5453083,61.847791 C73.3371655,60.881373 74.3212746,60.0691458 75.5007873,59.409552 C76.679512,58.7507368 78.07649,58.3442338 79.6893573,58.1908218 L79.6893573,52.6259364 L83.9709017,52.6259364 Z M7.95103424,53.8851611 C7.95103424,50.6954366 9.99174087,48.0002129 12.40986,48.0002129 C14.8279792,48.0002129 16.8694737,50.6954366 16.8694737,53.8851611 C16.8694737,57.0756642 14.8279792,59.7701092 12.40986,59.7701092 C9.99174087,59.7701092 7.95103424,57.0756642 7.95103424,53.8851611 L7.95103424,53.8851611 Z M12.40986,103.063454 C9.99174087,103.063454 7.95103424,100.369009 7.95103424,97.1785057 C7.95103424,93.9887813 9.99174087,91.2935576 12.40986,91.2935576 C14.8279792,91.2935576 16.8694737,93.9887813 16.8694737,97.1785057 C16.8694737,100.369009 14.8279792,103.063454 12.40986,103.063454 L12.40986,103.063454 Z M19.5783345,103.063454 C20.6002636,101.402399 21.2030206,99.37222 21.2030206,97.1785057 C21.2030206,91.5630021 17.2673721,87.0104804 12.40986,87.0104804 C10.7812343,87.0104804 9.25818957,87.5244497 7.95103424,88.4168872 L7.95103424,62.6467796 C9.25818957,63.5392171 10.7812343,64.0531864 12.40986,64.0531864 C17.2673721,64.0531864 21.2030206,59.5006647 21.2030206,53.8851611 C21.2030206,51.690668 20.6002636,49.6612682 19.5783345,48.0002129 L71.8684871,48.0002129 C62.6049397,52.3183335 56.0486772,63.0166817 56.0486772,75.5310547 C56.0486772,88.0462063 62.6049397,98.7453333 71.8684871,103.063454 L19.5783345,103.063454 Z" id="Fill-14" fill="#62B55B"></path>
                                <path d="M111.028702,66.0128111 C112.318523,69.8987302 116.70486,72.3556591 121.293692,71.7630369 L145.635619,69.6394094 C151.891685,69.0935117 157.290497,69.1168739 163.521349,69.8699168 L163.521349,70.167396 L163.521349,62.972605 L136.161698,58.2962634 L111.028702,66.0128111 Z" id="Fill-15" fill="#5BA354"></path>
                                <path d="M99.1791299,75.7926339 C99.1791299,62.8849966 91.8412531,52.4218283 82.7928072,52.4218283 C73.7443613,52.4218283 66.4096362,62.8849966 66.4096362,75.7926339 C66.4096362,88.7002712 73.7443613,99.1634395 82.7928072,99.1634395 C91.8412531,99.1634395 99.1791299,88.7002712 99.1791299,75.7926339" id="Fill-16" fill="#62B55B"></path>
                                <path d="M112.252101,34.8866764 L110.692812,40.9188067 L153.829726,40.9188067 L115.62754,54.3692267 C111.48073,55.7296877 109.096491,60.0890816 110.327219,64.3269919 C111.447638,68.195 115.375407,70.5919657 119.416636,70.1052524 L148.047199,66.6608796 C158.956706,64.9873645 180.496798,67.1873087 194.727378,62.5514617 C208.955594,57.9156146 226.258265,48.0209275 226.258265,48.0209275 L281.236792,47.341865 L249.916279,0.279412384 L179.940528,0.279412384 C175.422608,0.279412384 170.959843,1.20533581 166.809093,2.97074237 C151.877266,9.32293528 130.793379,21.8271846 118.820183,27.1779162 C115.55978,28.6341624 113.138509,31.4617721 112.252101,34.8866764" id="Fill-17" fill="#675646"></path>
                                <path d="M111.028702,62.1871665 C111.028702,62.5391575 111.057067,62.8958211 111.114585,63.2548208 C111.705523,66.8829766 115.16133,69.3508078 118.833026,68.7667518 C124.22317,67.9085789 125.565782,67.1890219 125.565782,65.8207735 C125.565782,64.7663577 124.766045,63.3249075 124.409119,61.1382019 C123.590472,56.113763 126.238663,54.1061678 116.691466,55.6262709 C113.383,56.1527 111.028702,58.9779735 111.028702,62.1871665" id="Fill-18" fill="#F2D4C9"></path>
                                <path d="M220.905468,41.8124902 C212.95144,47.0534192 210.805152,49.9347621 203.29157,55.6086713 C200.738716,57.5360561 196.415413,59.5693497 193.556847,60.9617391 C191.404256,62.009925 184.909452,64.8359772 182.488181,64.966027 C202.746331,63.8812403 226.260156,48.020616 226.260156,48.020616 L246.630978,47.969219 L246.630978,39.1998131 C234.917007,39.1998131 224.342365,39.5479105 220.905468,41.8124902" id="Fill-19" fill="#413020"></path>
                                <path d="M116.691072,55.6260373 C126.238269,54.1059342 123.590866,56.1143081 124.409513,61.1379683 C125.228159,66.1608498 128.379829,67.2464152 118.832632,68.7665182 C115.161724,69.3505742 111.705917,66.8835217 111.114979,63.2545872 C110.523253,59.6264314 113.020163,56.2100933 116.691072,55.6260373" id="Fill-20" fill="#C6BDB6"></path>
                            </g>
                            <g id="Group-24" stroke-width="1" fill="none" transform="translate(259.718406, 66.259354)">
                                <mask id="mask-4" fill="white">
                                    <use xlink:href="#path-3"></use>
                                </mask>
                                <g id="Clip-23"></g>
                                <path d="M13.4228077,0.288504476 C16.0079037,-0.127864733 18.5456211,2.0095441 19.0912156,5.06338718 C19.6382906,8.11723027 17.9852209,10.9312391 15.4001248,11.3483116 C12.8157691,11.7653841 10.2765711,9.6279753 9.73245723,6.57342889 C9.18538221,3.51958581 10.8377116,0.705577011 13.4228077,0.288504476" id="Fill-22" fill="#FFFFFF" mask="url(#mask-4)"></path>
                            </g>
                            <polygon id="Fill-25" fill="#DBDBDB" points="391.958416 62.7793536 454.59842 62.7793536 454.59842 0.139349047 391.958416 0.139349047"></polygon>
                            <g id="Group-42" stroke-width="1" fill="none" transform="translate(19.598389, 76.699355)">
                                <path d="M110.063955,32.9339202 L84.6484911,13.7975436 C84.6484911,13.7975436 78.6027968,16.3136749 81.4055779,23.0948603 C81.840969,24.1431179 82.435187,25.1201346 83.1384504,26.0133847 L95.36338,41.5665837" id="Fill-26" fill="#995E39"></path>
                                <path d="M115.929329,24.2424636 L90.5146557,5.10608694 C90.5146557,5.10608694 85.3033952,7.27540864 86.8007931,13.0130336 C87.2820148,14.851203 88.3519234,16.48661 89.7971691,17.7344985 L109.829112,35.0334886" id="Fill-28" fill="#995E39"></path>
                                <path d="M126.19089,19.6676295 L100.777006,0.531252871 C100.777006,0.531252871 93.5152197,3.55311565 98.5984704,11.8976844 L120.090673,30.4586545" id="Fill-30" fill="#995E39"></path>
                                <path d="M127.978838,48.213116 L166.289307,34.6922373 C170.448833,33.3237875 172.839138,28.9420865 171.606452,24.6817297 C170.482021,20.7924514 117.936395,48.4886849 117.936395,48.4886849 L127.978838,48.213116 Z" id="Fill-32" fill="#5BA354"></path>
                                <path d="M169.674927,51.2907189 L171.23949,45.2266388 L127.978522,45.2266388 L166.289781,31.7049772 C170.448517,30.3373103 172.839612,25.9548264 171.606136,21.6944696 C170.481704,17.8059741 166.54343,15.3963126 162.490578,15.8856038 L133.777679,19.3482202 C122.836007,21.0305992 101.23397,18.8190027 86.9632548,23.4794041 C72.6933302,28.1398054 55.3408996,38.0869008 55.3408996,38.0869008 L0.20505263,38.76956 L31.6156387,86.0812841 L101.791839,86.0812841 C106.323542,86.0812841 110.799141,85.1504564 114.961038,83.3756992 C129.935806,76.9898612 151.080328,64.4193818 163.088747,59.0403094 C166.357737,57.57635 168.785971,54.7337636 169.674927,51.2907189" id="Fill-34" fill="#B08161"></path>
                                <path d="M170.902635,23.8457071 C170.902635,23.4918516 170.874189,23.133299 170.815715,22.7723978 C170.223077,19.1250251 166.758123,16.6441227 163.075867,17.2312722 C157.670222,18.0939905 156.323749,18.8173587 156.323749,20.1928543 C156.323749,21.2528549 157.124995,22.7019398 157.482948,24.9002276 C158.303949,29.951279 155.648142,31.9695076 165.223586,30.4413532 C168.541567,29.9121357 170.902635,27.0718979 170.902635,23.8457071" id="Fill-36" fill="#F2D4C9"></path>
                                <path d="M60.7094856,44.3279086 C68.6863885,39.0592204 70.8388484,36.1626162 78.3740387,30.4586545 C80.9342334,28.5210611 85.2699705,26.476998 88.1367564,25.0772336 C90.2955378,24.0234959 96.8082306,21.1824752 99.2372548,21.0517366 C78.9208457,22.1422689 55.3393982,38.0869008 55.3393982,38.0869008 L34.9092027,38.13857 L34.9092027,46.9544241 C46.6576516,46.9544241 57.262705,46.604483 60.7094856,44.3279086" id="Fill-38" fill="#995E39"></path>
                                <path d="M165.223191,30.441588 C155.648537,31.9697425 158.303554,29.950731 157.482553,24.9004624 C156.661552,19.8501938 153.500818,18.7596615 163.075472,17.2315071 C166.757727,16.6443575 170.222682,19.124477 170.81532,22.7726326 C171.408748,26.4200053 168.904656,29.8544385 165.223191,30.441588" id="Fill-40" fill="#E3D2C5"></path>
                            </g>
                            <g id="Group-45" stroke-width="1" fill="none" transform="translate(176.198400, 94.099356)">
                                <mask id="mask-6" fill="white">
                                    <use xlink:href="#path-5"></use>
                                </mask>
                                <g id="Clip-44"></g>
                                <path d="M1.5275904,13.296596 C-1.05750564,13.7129652 -3.59522306,11.5755563 -4.1408175,8.52171326 C-4.68715223,5.46787017 -3.0348228,2.65386138 -0.44972676,2.23678884 C2.13536928,1.81971631 4.67382699,3.95712514 5.21868114,7.01167155 C5.76501587,10.0655146 4.11268644,12.8795234 1.5275904,13.296596" id="Fill-43" fill="#FFFFFF" mask="url(#mask-6)"></path>
                            </g>
                            <polygon id="Fill-46" fill="#35B6B4" points="0.458387188 172.399362 54.3983911 172.399362 54.3983911 109.759357 0.458387188 109.759357"></polygon>
                            <polygon id="Fill-50" fill="#E94368" points="404.138417 66.2593538 456.33842 66.2593538 456.33842 0.139349047 404.138417 0.139349047"></polygon>
                        </g>
                    </g>
                </g>
            </g>
            <g id="CTA" transform="translate(96.065272, 372.610700)">
                <rect id="Shadow" fill="#DDB400" x="2.99623371" y="2.99503269" width="221.721295" height="44.9254903" rx="22.4627451"></rect>
                <rect id="Btn" fill="#FFDD00" x="-1.6484592e-13" y="0" width="221.721295" height="44.9254903" rx="22.4627451"></rect>
            </g>
        </g>
    </g>
</svg>