<?xml version="1.0" encoding="UTF-8"?>
<svg width="416px" height="449px" viewBox="0 0 416 449" version="1.1" xmlns="http://www.w3.org/2000/svg" xmlns:xlink="http://www.w3.org/1999/xlink">
    <title>92993691-8FA6-4A9E-ABB9-2527663DF274@1x</title>
    <g id="Instructional" stroke="none" stroke-width="1" fill="none" fill-rule="evenodd">
        <g id="Demo" transform="translate(2.000000, 2.000000)">
            <rect id="Shadow" fill="#E6E6E6" x="17.33076" y="18.5257392" width="396.441136" height="407.566262" rx="4.224"></rect>
            <path d="M380.441136,-0.704 C385.053818,-0.704 389.229818,1.16565888 392.252648,4.18848833 C395.275477,7.21131777 397.145136,11.3873178 397.145136,16 L397.145136,16 L397.145136,428.61774 C397.145136,433.230423 395.275477,437.406423 392.252648,440.429252 C389.229818,443.452082 385.053818,445.32174 380.441136,445.32174 L380.441136,445.32174 L16,445.32174 C11.3873178,445.32174 7.21131777,443.452082 4.18848833,440.429252 C1.16565888,437.406423 -0.704,433.230423 -0.704,428.61774 L-0.704,428.61774 L-0.704,16 C-0.704,11.3873178 1.16565888,7.21131777 4.18848833,4.18848833 C7.21131777,1.16565888 11.3873178,-0.704 16,-0.704 L16,-0.704 L380.441136,-0.704 Z" id="Window" stroke="#D8D8D8" stroke-width="1.408" fill="#FFFFFF"></path>
            <g id="CTA" transform="translate(99.651870, 384.409088)">
                <rect id="Shadow" fill="#DDB400" x="2.16634501" y="2.3157174" width="194.97105" height="34.735761" rx="16.896"></rect>
                <rect id="Btn" fill="#FFDD00" x="0" y="0" width="194.97105" height="34.735761" rx="16.896"></rect>
            </g>
            <path d="M373.196776,42.3869132 C374.635367,42.3869132 375.937767,42.9700175 376.880519,43.9127697 C377.823272,44.8555218 378.406376,46.1579218 378.406376,47.5965132 L378.406376,47.5965132 L378.406376,351.864738 C378.406376,353.303329 377.823272,354.605729 376.880519,355.548481 C375.937767,356.491234 374.635367,357.074338 373.196776,357.074338 L373.196776,357.074338 L23.24436,357.074338 C21.8057687,357.074338 20.5033687,356.491234 19.5606166,355.548481 C18.6178644,354.605729 18.03476,353.303329 18.03476,351.864738 L18.03476,351.864738 L18.03476,47.5965132 C18.03476,46.1579218 18.6178644,44.8555218 19.5606166,43.9127697 C20.5033687,42.9700175 21.8057687,42.3869132 23.24436,42.3869132 L23.24436,42.3869132 Z" id="Container" stroke="#D8D8D8" stroke-width="1.408" fill="#FFFFFF"></path>
            <path d="M351.056581,274.310653 C351.9314,274.310653 352.7234,274.665243 353.296695,275.238539 C353.86999,275.811834 354.224581,276.603834 354.224581,277.478653 L354.224581,277.478653 L354.224581,324.607871 C354.224581,325.48269 353.86999,326.27469 353.296695,326.847985 C352.7234,327.42128 351.9314,327.775871 351.056581,327.775871 L351.056581,327.775871 L45.3845551,327.775871 C44.5097361,327.775871 43.7177361,327.42128 43.1444408,326.847985 C42.5711456,326.27469 42.2165551,325.48269 42.2165551,324.607871 L42.2165551,324.607871 L42.2165551,277.478653 C42.2165551,276.603834 42.5711456,275.811834 43.1444408,275.238539 C43.7177361,274.665243 44.5097361,274.310653 45.3845551,274.310653 L45.3845551,274.310653 Z" id="Field" stroke="#2D4E9D" stroke-width="2.112" fill="#FFFFFF"></path>
            <rect id="Header" fill="#D7D7D7" x="41.1605551" y="250.097479" width="75.8220752" height="13.8943044" rx="1.408"></rect>
            <path d="M211.109948,175.994522 L351.056581,175.994522 C353.389432,175.994522 355.280581,177.885671 355.280581,180.218522 L355.280581,227.34774 C355.280581,229.680591 353.389432,231.57174 351.056581,231.57174 L211.109948,231.57174 C208.777097,231.57174 206.885948,229.680591 206.885948,227.34774 L206.885948,180.218522 C206.885948,177.885671 208.777097,175.994522 211.109948,175.994522 Z" id="Field" fill="#EFEFEF"></path>
            <rect id="Header" fill="#D7D7D7" x="206.885948" y="152.837348" width="75.8220752" height="13.8943044" rx="1.408"></rect>
            <path d="M45.3845551,175.994522 L185.331188,175.994522 C187.664039,175.994522 189.555188,177.885671 189.555188,180.218522 L189.555188,227.34774 C189.555188,229.680591 187.664039,231.57174 185.331188,231.57174 L45.3845551,231.57174 C43.0517043,231.57174 41.1605551,229.680591 41.1605551,227.34774 L41.1605551,180.218522 C41.1605551,177.885671 43.0517043,175.994522 45.3845551,175.994522 Z" id="Field" fill="#EFEFEF"></path>
            <rect id="Header" fill="#D7D7D7" x="41.1605551" y="152.837348" width="54.1586251" height="13.8943044" rx="1.408"></rect>
            <rect id="Header-Copy" fill="#D7D7D7" x="40.8196721" y="77.5688073" width="54.1586251" height="13.8943044" rx="1.408"></rect>
            <rect id="Text" fill="#D7D7D7" x="41.1605551" y="119.838375" width="314.120026" height="4.6314348" rx="1.408"></rect>
            <rect id="Text" fill="#D7D7D7" x="41.1605551" y="101.312636" width="314.120026" height="4.6314348" rx="1.408"></rect>
        </g>
    </g>
</svg>