<?xml version="1.0" encoding="UTF-8"?>
<svg width="416px" height="449px" viewBox="0 0 416 449" version="1.1" xmlns="http://www.w3.org/2000/svg" xmlns:xlink="http://www.w3.org/1999/xlink">
    <title>78798181-F1E9-4E61-ADF4-B086061FD2DE@1x</title>
    <g id="Instructional" stroke="none" stroke-width="1" fill="none" fill-rule="evenodd">
        <g id="Group-4" transform="translate(8.000000, 1.000000)">
            <g id="Illustration-/-SMO-/-Step-04">
                <path d="M38.8645733,16.3404255 L384.130033,16.3404255 C392.966589,16.3404255 400.130033,23.5038695 400.130033,32.3404255 L400.130033,418.382979 C400.130033,427.219535 392.966589,434.382979 384.130033,434.382979 L38.8645733,434.382979 C30.0280173,434.382979 22.8645733,427.219535 22.8645733,418.382979 L22.8645733,32.3404255 C22.8645733,23.5038695 30.0280173,16.3404255 38.8645733,16.3404255 Z" id="Shadow" fill="#E6E6E6"></path>
                <path d="M361.265459,0.8 C365.462824,0.8 369.262824,2.50131795 372.013483,5.25197693 C374.764141,8.0026359 376.465459,11.8026359 376.465459,16 L376.465459,16 L376.465459,432 C376.465459,436.197364 374.764141,439.997364 372.013483,442.748023 C369.262824,445.498682 365.462824,447.2 361.265459,447.2 L361.265459,447.2 L16,447.2 C11.8026359,447.2 8.0026359,445.498682 5.25197693,442.748023 C2.50131795,439.997364 0.8,436.197364 0.8,432 L0.8,432 L0.8,16 C0.8,11.8026359 2.50131795,8.0026359 5.25197693,5.25197693 C8.0026359,2.50131795 11.8026359,0.8 16,0.8 L16,0.8 Z" id="Device" stroke="#D8D8D8" stroke-width="1.6" fill="#FFFFFF"></path>
                <rect id="Text" fill="#D7D7D7" x="30.0097525" y="106.359189" width="282.949095" height="5.72954545" rx="1.6"></rect>
                <rect id="Text" fill="#D7D7D7" x="30.0097525" y="83.4410074" width="282.949095" height="5.72954545" rx="1.6"></rect>
                <g id="Call-out" transform="translate(30.580717, 36.451147)" fill="#D7D7D7">
                    <rect id="Header" x="0.454737234" y="0.343000467" width="100.032508" height="17.1886364" rx="1.6"></rect>
                </g>
            </g>
            <g id="Group-89" transform="translate(28.000000, 136.000000)">
                <path d="M10.5018749,207 L310.100028,204.627596 C314.480251,204.591763 318.035595,200.967812 318,196.569859 L316.529296,10.9313585 C316.493432,6.53579506 312.883095,2.96678864 308.500482,3 L8.90471945,5.37240408 C4.52210571,5.40584859 0.96676112,9.03218845 1,13.4301408 L2.47545139,199.068641 C2.50892471,203.464205 6.12165213,207.033211 10.5018749,207" id="Fill-5" fill="#A9A4A5"></path>
                <path d="M10.5018761,204 L310.09767,201.627562 C314.480285,201.594117 318.033239,197.967778 318,193.572216 L316.526939,7.93374609 C316.493466,3.53579447 312.880738,-0.0332113513 308.500515,0 L8.9023295,2.37240368 C4.51971529,2.40584818 0.966761272,6.03218743 1,10.430139 L2.47306076,196.068608 C2.50653408,200.46656 6.11926189,204.035566 10.5018761,204" id="Fill-7" fill="#FEFEFE"></path>
                <path d="M315.755946,7.95965972 C315.720056,3.54629447 312.107098,-0.0356713532 307.723696,0 L7.90806494,2.37706416 C3.52226987,2.41300361 -0.0332628521,6.0500766 0,10.4634419 L0.241896141,41 L36.3738609,40.7148803 L44.5640281,40.6501893 L230.236531,39.1742756 L246.279497,39.0496855 L316,38.4962179 L315.755946,7.95965972 Z" id="Fill-9" fill="#33B4B2"></path>
                <path d="M22,13.2185539 L22.0654971,22 L29.9274854,21.9336971 C30.2362573,19.1710778 32.3789474,17.0199181 34.9964912,16.9978172 C37.6140351,16.9757162 39.7871345,19.0924966 40.1380117,21.8502046 L48,21.7839018 L47.9345029,13 L22,13.2185539 Z" id="Fill-11" fill="#FEFEFE"></path>
                <path d="M35.0035088,27.003548 C32.3859649,27.025655 30.2128655,24.9082969 29.8619883,22.1498362 L22,22.2161572 L22.0678363,31 L48,30.7838428 L47.9321637,22 L40.0725146,22.0638646 C39.7637427,24.8296943 37.6210526,26.981441 35.0035088,27.003548" id="Fill-13" fill="#FEFEFE"></path>
                <polygon id="Fill-15" fill="#A9A4A5" points="303 174.496797 238.059729 175 238 167.500874 302.937881 167"></polygon>
                <polygon id="Fill-17" fill="#33B4B2" points="305 186.361039 230.065029 187 230 178.641558 304.939788 178"></polygon>
                <polygon id="Fill-19" fill="#33B4B2" points="120 163.777432 20.2201747 164 20 64.2177815 119.779825 64"></polygon>
                <path d="M113.227564,127.576836 C113.315634,127.11511 113.65125,126.717978 113.851191,126.280176 C114.536705,124.782558 112.634881,124.914138 112.572994,123.768197 C112.561093,123.550492 112.653923,123.344749 112.706288,123.139006 C112.865765,122.543308 112.692007,121.871055 112.273082,121.423683 C112.013634,121.146169 111.632793,120.861478 111.713722,120.48827 C112.080281,118.866249 110.287949,118.138971 109.059737,117.146142 C108.909781,117.024131 108.750304,116.890159 108.693178,116.705947 C108.588447,116.385371 108.814571,116.055225 108.835993,115.720294 C108.864556,115.327947 108.61701,114.978662 108.438491,114.63177 C107.574458,112.940371 109.345368,110.952319 107.243603,110.014513 C106.915127,109.868579 106.481921,109.715468 106.462879,109.354221 C106.455738,109.217857 106.517625,109.088669 106.584272,108.976228 C107.112689,108.057562 108.224268,107.246551 107.929116,106.229798 C107.672049,105.342232 106.448597,105.004909 106.222473,104.107773 C106.077278,103.538392 106.398612,102.928339 106.251036,102.358957 C106.084418,101.696273 105.363201,101.342204 104.69911,101.203447 C104.496788,101.160385 104.273044,101.119714 104.13975,100.961819 C103.896964,100.677128 104.094525,100.25368 104.189735,99.8948256 C104.389677,99.1364471 104.025498,98.2632353 103.344745,97.8804575 C102.947242,97.6579679 102.468811,97.5933742 102.09035,97.3373915 C101.845184,97.174711 101.654763,96.9402596 101.466723,96.7105929 C101.004954,96.141211 100.545564,95.5766138 100.086175,95.0096242 C99.7362777,94.5789992 99.3340146,94.1196658 98.7889362,94.047895 C98.4318979,94.0048325 98.0629583,94.13402 97.7225818,94.0287561 C97.2822346,93.8947839 97.0442091,93.4306658 96.7466772,93.0765964 C96.1611344,92.3756346 95.1757088,92.040704 94.2854933,92.23927 C94.1117347,92.2751554 93.9308353,92.3349645 93.7546964,92.291902 C93.545234,92.23927 93.4000384,92.0526658 93.2643638,91.8804158 C92.538386,90.9426103 91.6719731,90.0670061 90.5841965,89.5981033 C89.4964199,89.1315929 88.1468152,89.13877 87.2066144,89.8612631 C86.3425817,88.4736936 84.8596827,87.4904332 83.24825,87.2392353 C82.0033765,87.045454 80.6989967,87.2894749 79.5945583,87.9019193 C79.5326716,87.7775165 79.489827,87.641152 79.4755455,87.5071797 C79.4374614,87.0933013 79.5659952,86.6818152 79.5778965,86.2679367 C79.6159806,84.9880235 78.2973192,83.8564367 77.0453049,84.0884957 C77.4380471,83.2966242 77.0572062,82.215277 76.2574405,81.8492457 C75.9979927,81.73202 75.7099818,81.6793881 75.4624352,81.5430235 C75.0720734,81.3253186 74.8269071,80.9186172 74.5388962,80.5765096 C73.7605528,79.6482735 72.5418621,79.1123846 71.337453,79.1698013 C71.7397161,78.7343915 71.3850581,77.9855825 70.8661625,77.7008916 C70.3496471,77.4162006 69.7284005,77.3946693 69.1857023,77.1578256 C68.7239328,76.9568672 68.3407117,76.6051902 67.8908435,76.3707388 C67.1172605,75.961645 66.1603979,75.9233672 65.3558717,76.2702596 C64.8798206,76.4760027 64.4180511,76.8133256 63.9015358,76.7678707 C63.4207242,76.7248082 63.0398834,76.358777 62.5971559,76.1626034 C61.7474048,75.7822179 60.7929225,76.1649957 59.8789045,76.3420304 C58.1436984,76.6841381 58.4816947,77.5453881 57.5748175,77.8324714 C56.0752567,78.3109436 54.1210672,78.1841485 52.9118975,79.1985096 C52.7357586,79.346836 52.5500987,79.5119089 52.3215942,79.5334402 C52.0359636,79.5573638 51.7907973,79.3516207 51.5337298,79.2248256 C50.481657,78.7008985 49.2582058,79.5166936 48.4846229,80.4042596 C47.7110399,81.2942179 46.9612595,82.3803499 45.8044555,82.5860929 C45.3498268,82.6674332 44.8571139,82.6004471 44.4477101,82.8085825 C44.0073628,83.0334645 43.7693373,83.507152 43.4646647,83.8971068 C42.348325,85.3205617 40.3608119,85.8038186 39.9180844,87.7200999 C39.4110901,87.4282318 38.7350976,87.6315825 38.3114122,88.0382839 C37.6282789,88.6937908 37.5473502,89.7344679 36.8237527,90.3588742 C36.5452628,90.602895 36.2001258,90.748829 35.8978334,90.9617492 C35.167095,91.4761068 34.8171975,92.3230026 34.7410294,93.1842526 C32.6249825,93.0311415 31.6609791,95.0837874 32.0275384,96.8517422 C32.0989461,97.1962422 32.2203391,97.5550964 32.3464926,97.9211276 C32.1584525,98.0981624 32.0061161,98.3134749 31.9132862,98.552711 C31.6443174,99.2608499 31.8894836,100.134062 32.489308,100.595787 C31.7442881,100.562294 30.9992682,101.052728 30.7374401,101.758475 C30.5613012,102.222593 30.6041458,102.758482 30.8231293,103.203461 C30.4898936,103.60777 30.2209248,104.071888 30.1257145,104.677155 C30.0828699,104.940315 30.0852502,105.201082 30.1090528,105.46185 C30.0281241,105.71544 29.9757585,105.980992 29.9614769,106.246544 C29.9233929,106.88052 30.0804897,107.51928 30.3923031,108.071916 C30.3756413,108.179572 30.3565993,108.287228 30.3208955,108.394885 C30.1780802,108.85661 29.9162521,109.265704 29.6044387,109.653267 C29.2950055,109.918819 29.0188959,110.227433 28.7903914,110.567148 C28.4262123,110.957103 28.0715543,111.347058 27.8049657,111.770506 C27.1575363,112.801614 26.7481324,113.98344 26.6172184,115.19876 C26.5815146,115.569576 26.5791343,115.964315 26.6386407,116.337523 C26.6219789,116.371017 26.6029369,116.40451 26.5910356,116.440395 C26.2458986,117.213128 26.2744616,118.093517 26.3101655,118.940412 C26.3315878,119.452378 26.4315585,120.079176 26.9099898,120.251426 C26.231617,120.732291 25.876959,121.634211 26.0388164,122.450006 C26.1149845,122.832784 26.3030247,123.184461 26.567233,123.469152 C26.455361,123.705996 26.3625311,123.945232 26.3077852,124.201214 C26,125.691655 27.1646771,125.823235 27.6312071,126.82085 C28.0882161,127.799326 27.3550975,129.021822 28.8165742,129.610343 C28.488099,130.213218 28.2334117,130.90461 28.3833677,131.574471 C28.5333238,132.24194 29.2331188,132.816107 29.8829285,132.610364 C29.5972979,133.014673 29.6591845,133.62951 30.0186031,133.97401 C30.3780216,134.316117 30.9921274,134.344826 31.380109,134.033819 C31.1730268,134.667794 31.1397033,135.407034 31.5157836,135.954885 C31.8942442,136.502735 32.7749386,136.701301 33.2319476,136.218044 C33.8246311,136.380725 33.9603057,137.194128 33.7627445,137.780256 C33.5651833,138.363992 33.1581597,138.87835 33.0700902,139.488402 C32.984401,140.098454 33.4771139,140.859225 34.0650369,140.679798 C33.8293916,141.416645 33.5866056,142.177416 33.6508725,142.950148 C33.7151394,143.720489 34.1602471,144.514753 34.8981262,144.742027 C34.5958338,145.701364 35.0290402,146.727687 35.7716799,147.435826 C35.5764989,148.076978 35.6859907,148.85928 36.1191971,149.3856 C36.8784985,150.311444 38.2209625,150.54111 39.3991888,150.347329 C39.2873168,151.014798 39.5634264,151.734898 40.091843,152.148777 C40.6250202,152.565048 41.3867019,152.660742 42.003188,152.388013 C42.1507638,152.323419 42.3102409,152.237294 42.4649575,152.280357 C42.6030123,152.323419 42.6910817,152.454999 42.7624894,152.584187 C43.1576117,153.309072 43.5598749,154.261232 44.3810629,154.273194 C44.6119477,154.277978 44.8380719,154.196638 45.0665764,154.201423 C45.9234683,154.227739 46.3471537,155.349756 47.170722,155.579423 C47.739603,155.737319 48.327526,155.423919 48.9154491,155.383249 C49.6699899,155.335402 50.3650245,155.734926 51.0719603,155.995694 C51.7788961,156.256461 52.6714917,156.349763 53.1975281,155.811482 C53.7711696,156.749287 55.0041418,157.222975 56.0514541,156.897614 C56.7012638,156.696655 57.3248907,156.22536 57.9889819,156.364117 C58.2865138,156.426319 58.5412011,156.608138 58.8220712,156.730148 C59.4861624,157.014839 60.2906886,156.940676 60.8928932,156.53876 C61.1856646,156.342586 61.4546334,156.065072 61.8045309,156.031579 C62.178231,155.990909 62.5186075,156.237322 62.8923076,156.289954 C63.7444389,156.404787 64.3966288,155.498082 65.2392392,155.311478 C65.8842883,155.167937 66.6888146,155.423919 67.1315421,154.928701 C67.4457357,154.572239 67.3695676,154.033957 67.4005109,153.557878 L82.6936505,151.560256 C82.8745499,152.22294 83.5243596,152.792322 84.1932113,152.667919 C84.2193941,153.287541 84.3122241,153.964579 84.7620923,154.388027 C85.2119605,154.811475 86.1283588,154.722957 86.2687938,154.11769 C86.6377334,155.57703 88.5824019,156.359332 89.8534581,155.562676 C90.1914544,155.349756 90.4913665,155.045926 90.8817284,154.962194 C91.8124082,154.761235 92.6454975,155.899999 93.5761773,155.706218 C94.3140564,155.553107 94.7615444,154.620086 95.5160853,154.624871 C95.9088274,154.627263 96.2515841,154.8976 96.6395657,154.959801 C97.5869073,155.112912 98.2581392,154.055489 99.1459744,153.694242 C99.8267274,153.419121 100.602691,153.567447 101.326288,153.435867 C102.047506,153.301895 102.802046,152.612895 102.528317,151.931072 C103.480419,151.545902 104.461084,151.141593 105.187062,150.40953 C105.91304,149.677468 106.320064,148.52435 105.889237,147.586544 C106.758031,147.820996 107.469727,146.907114 107.912454,146.120027 C108.33852,145.356864 108.766966,144.593701 109.195412,143.830537 C109.452479,143.366419 109.716688,142.887947 109.788095,142.361628 C109.859503,141.832916 109.690505,141.237218 109.243017,140.952527 C110.804464,139.997975 112.320687,139.670221 112.494446,137.840065 C112.53253,137.442933 112.706288,136.155843 112.789597,135.763496 C112.941934,135.062534 113.608405,134.459659 113.660771,133.744343 C113.705995,133.136683 113.329915,132.624718 113.310873,132.045766 C113.28231,131.20844 113.808346,130.454846 113.732178,129.622305 C113.672672,128.96919 113.165678,128.397416 113.206142,127.739517 C113.208522,127.686885 113.215663,127.629468 113.227564,127.576836" id="Fill-21" fill="#000000"></path>
                <polygon id="Fill-23" fill="#905B3C" points="83 163.948197 59.0472487 164 59 142.051803 82.9503888 142"></polygon>
                <path d="M60.5508274,147.293009 C62.4373522,148.83201 72.713948,162.735348 83,156.317691 L82.964539,140 L59,141.715023 L60.5508274,147.293009 Z" id="Fill-25" fill="#47382B"></path>
                <path d="M95.637217,120.506507 C94.3633773,118.643855 91.815698,120.516084 91.815698,120.516084 C91.815698,120.516084 91.4719261,116.467569 89.9084704,111.731933 C85.7243427,99.0644649 73.9301415,105.775278 70.9633431,105.782461 C67.9988992,105.789643 56.1717336,99.1291071 52.0441163,111.818123 C50.5018521,116.560941 50.1745624,120.609456 50.1745624,120.609456 C50.1745624,120.609456 47.6198193,118.749198 46.3530434,120.616638 C45.0862676,122.486472 47.3278486,136.051748 51.4860757,133.710266 L52.4726539,137.215307 C53.4992604,141.519996 55.7785151,143.725011 58.9807737,146.487865 L63.0966179,150.038395 C65.3193622,151.956112 68.1472391,153.007146 71.064591,153 C73.9842974,152.992781 76.8074651,151.929777 79.0231456,150.000089 L83.1248622,146.432799 C86.3106386,143.657975 88.5804749,141.440989 89.5905992,137.131512 L90.5630498,133.621682 C94.7283406,135.946405 96.9134112,122.371553 95.637217,120.506507" id="Fill-27" fill="#905B3C"></path>
                <path d="M75.1299361,133.966455 C74.0592328,134.177939 72.7000752,135.242177 70.5024445,135.244451 C68.3097029,135.248999 66.9432117,134.193857 65.8725085,133.986922 C64.5817977,133.73678 64.440015,133.509379 64,133.027288 C64.5255735,133.916427 66.4738624,137.006811 70.5073336,137 C74.5432493,136.990893 76.4744265,133.891413 77,133 C76.559985,133.484365 76.4182023,133.71404 75.1299361,133.966455" id="Fill-29" fill="#47382B"></path>
                <path d="M87.8314344,122.897283 C85.976719,121.034165 84.377474,120.042084 81.7665661,120.865654 C79.7023649,121.515965 77.6841484,122.180516 75.5892908,122.740638 C74.2480709,123.099022 73.3896902,120.915495 74.5316431,120.583219 C77.9523924,119.586392 84.8526491,116.624391 87.9489508,122.835574 C88.0894596,123.115635 87.9029662,122.968485 87.8314344,122.897283" id="Fill-31" fill="#000000"></path>
                <path d="M77.5032738,125.882367 C78.2987508,124.883149 79.4884672,124.269279 80.8134848,124.414905 C81.7489285,124.517964 82.5584022,125.196805 83.5125081,125.100468 C83.8530936,125.066862 84.0513796,124.822658 83.9883947,124.49556 C83.7107942,123.010174 81.5786357,122.848866 80.3282671,123.093069 C78.8539518,123.379841 77.6782321,124.334251 77.0343855,125.620241 C76.8780895,125.929416 77.2933238,126.144494 77.5032738,125.882367" id="Fill-33" fill="#37313A"></path>
                <path d="M79.4261508,123.218986 C79.162361,123.512415 78.9974924,123.875917 79,124.274455 C79.0025653,125.229196 79.900465,126.002185 81.0038164,126 C82.1097042,125.997806 83.002531,125.222626 83,124.267886 C83,123.902194 82.8655633,123.564969 82.6423566,123.286868 C82.2542813,123.427014 81.9727364,122.997819 81.3766731,123 C80.6791521,123 79.8116896,123.398547 79.4261508,123.218986" id="Fill-35" fill="#37313A"></path>
                <path d="M53.1671823,122.896513 C55.0152167,121.037443 56.6102008,120.046568 59.2276106,120.853423 C61.2954666,121.490414 63.3173135,122.14392 65.4158422,122.69126 C66.760332,123.042785 67.6089453,120.869938 66.4638286,120.544365 C63.0361464,119.567645 56.1168804,116.651641 53.0496033,122.837532 C52.9115759,123.115921 53.0981686,122.96729 53.1671823,122.896513" id="Fill-37" fill="#000000"></path>
                <path d="M63.4993625,125.882215 C62.6976084,124.882332 61.5089614,124.269791 60.1828042,124.422926 C59.2482014,124.526518 58.4441166,125.215626 57.4908683,125.123295 C57.1505889,125.087263 56.9501504,124.8463 57.0107481,124.51751 C57.2834377,123.019937 59.411349,122.848786 60.6629244,123.089748 C62.1359144,123.373499 63.3152388,124.326091 63.9654986,125.618733 C64.1216542,125.927255 63.7091238,126.145698 63.4993625,125.882215" id="Fill-39" fill="#37313A"></path>
                <path d="M61.5687967,123.210381 C61.8325884,123.504024 62,123.867792 62,124.266621 C62.0025311,125.222059 61.1096978,125.997804 60.003802,126 C58.8979062,126.002187 58.0025365,125.230824 58,124.275387 C58,123.909428 58.1318958,123.571957 58.3525677,123.293653 C58.7406458,123.431709 59.0221927,123 59.6157239,123 C60.3157864,122.997818 61.1832551,123.392264 61.5687967,123.210381" id="Fill-41" fill="#37313A"></path>
                <path d="M71.0034291,141.559045 L63,140.041994 C63.4983569,140.391074 64.1590227,142.467176 65.4574939,144.322807 C67.0120017,146.543266 68.7013859,147.005205 71.0125732,147 C73.3260466,146.992082 75.0131447,146.524893 76.5585084,144.293936 C77.8478354,142.433056 78.5016431,140.351704 79,140 L71.0034291,141.559045 Z" id="Fill-43" fill="#392A1C"></path>
                <path d="M77.3420203,141.050845 L71.003304,141.761625 L64.6569229,141.077349 C64.0360813,140.927965 63.6349614,141.070121 64.4882993,142.070031 C65.4719372,143.219325 68.2516726,144.004797 71.0084138,144 C73.7626001,143.995159 76.5372256,143.19764 77.5157538,142.041118 C78.3639818,141.038798 77.9628619,140.901461 77.3420203,141.050845" id="Fill-45" fill="#FEFEFE"></path>
                <path d="M73.413436,140.142054 C71.6218334,139.988054 70.4988104,140.620054 70.4988104,140.620054 C70.4988104,140.620054 69.3781666,139.992054 67.586564,140.154054 C65.7949615,140.314054 62,140.388054 62,140.388054 C62,140.388054 64.2484255,141.894054 70.5035689,141.882054 C76.7587124,141.870054 79,140.354054 79,140.354054 C79,140.354054 75.2050385,140.296054 73.413436,140.142054" id="Fill-47" fill="#392A1C"></path>
                <polygon id="Fill-49" fill="#A9A4A5" points="300 97.4814658 235.262001 98 235 64.5161336 299.737999 64"></polygon>
                <polygon id="Fill-51" fill="#FEFEFE" points="258.784404 84.1464494 257.256881 82.9487338 255.004587 82.7216221 254.672018 83.3121126 254.21789 83.1567204 253.983945 82.2506641 253.309633 82.2052417 253.584862 81.3422171 253.020642 81.2896228 252.461009 81.7773154 252.06422 81.1748716 252.394495 80.1421109 253.912844 79.888702 254.199541 80.7326014 254.594037 80.6704445 254.587156 79.5970427 255.876147 78.0168231 257.266055 77.2159554 259.055046 76.3529308 257.756881 73.3980875 257.178899 73.7638569 256.706422 72.4418275 255.603211 72.5087657 255.332569 74.8731185 254.924312 74.9328847 253.224771 73.0729591 253.568807 72.1023552 255.34633 71.7246325 255.327982 69.4224367 250.938073 69.945989 248.667431 68.5713653 247.62844 69.6089074 244.770642 68 243.211009 68.9801665 243.800459 70.1683195 243.309633 70.1731008 243.146789 70.8424827 243.990826 70.9524526 243.15367 71.6863821 243.440367 72.7143616 244.176606 72.8888791 243 73.9288118 244.853211 72.943864 245.857798 72.329467 247.5 73.4076501 248.81422 75.7552683 248.830275 77.8757747 249.630734 79.4392598 250.940367 81.6075792 252.522936 82.2028511 253.199541 82.5566673 253.995413 83.6396317 254.543578 83.5440057 253.949541 84.6078449 254.470183 86.7833363 255.548165 87.8017531 254.295872 93.4436869 254.756881 94.6485745 256.052752 95 255.259174 94.098725 256.311927 91.9112803 258.603211 89.7740393 258.766055 88.8058261 259.889908 88.6121835 261 86.1235169 259.020642 85.112272"></polygon>
                <polygon id="Fill-53" fill="#FEFEFE" points="288.269866 84 288.147128 85.0565111 287.290323 84.7395577 287.441385 84.1670762 286.501967 84.0909091 285.291109 85.2825553 284 85.7837838 284.330448 87.6117936 284.214792 87.977887 284.686861 88.2579853 286.603462 87.7469287 287.344611 88.1916462 287.698662 87.982801 287.941778 88.7223587 288.923682 89 289.622345 88.5479115 290 86.3488943 288.930763 85.2555283"></polygon>
                <polygon id="Fill-55" fill="#FEFEFE" points="283.44 83.554 284.304 83.714 284.696 82.484 284.458 82.286 283.304 83.024"></polygon>
                <polygon id="Fill-57" fill="#FEFEFE" points="289 84.64 288.614539 84.012 286.882502 83.36 286 83.432 287.146238 84.354 287.792899 84.384 288.069315 84.182"></polygon>
                <polygon id="Fill-59" fill="#FEFEFE" points="287.677 75 287.445 75.0022663 287.419 76.3575071 286.835 77.7898017 286.075 78.4356941 286.045 79 287.433 78.0481586 287.493 77.0691218 287.955 76.5750708 287.587 76.2396601 287.779 75.4509915"></polygon>
                <polygon id="Fill-61" fill="#FEFEFE" points="293.058 88.02 293.168 88.948 292.144 89.918 292.81 89.98 293.398 89.078 293.856 88.446 293.56 88.414"></polygon>
                <polygon id="Fill-63" fill="#FEFEFE" points="266.914 72.029 266.922 72.993 267.592 72.697 267.78 72.399 267.04 71.007 266.616 71.307 266.644 71.681 266.246 72.169 266.22 72.679 266.706 72.675"></polygon>
                <polygon id="Fill-65" fill="#FEFEFE" points="272.595 85.656 272.573 86.732 273.009 86.914 273.427 85.62 273.315 85.086"></polygon>
                <path d="M274.327181,76.611798 L274.476397,76.0042388 L274.121121,75.1258684 L275.101682,74.581891 L275.106419,75.0528671 L274.72509,75.2153538 L275.051944,75.6863299 L275.213002,76.6659602 L274.327181,76.611798 Z M273.02687,76.079595 L272.325792,75.8982692 L271.373652,76.0631108 L271.146276,75.6580714 L271.650768,74.7655716 L273.31346,75.6086189 L273.02687,76.079595 Z M292.593107,71.2638644 L294,70.4726245 L293.599722,69.37996 L283.16408,68 C283.16408,68 276.852009,68.7135288 273.375041,69.1067938 L270.352826,68.5793006 L269.144887,69.2527964 L268.678291,70.423172 L268.107481,70.8729542 L268.083796,71.8525845 L268.405913,72.0409749 L269.066727,71.6571294 L269.395949,72.6603085 L269.966759,72.4413046 L270.340983,71.4216414 L269.954917,71.0166019 L270.29835,70.2559755 L270.708102,69.7449664 L270.954427,69.7826445 L270.72705,70.3784293 L270.459409,70.5668197 L270.561254,70.8093724 L270.542306,70.8494054 L270.577834,70.85647 L270.817053,71.4192865 L271.482604,71.2261863 L271.714717,71.4946426 L270.978112,71.7371953 L271.141539,72.335335 L270.665469,72.177558 L270.322035,73.0653479 L269.078569,73.044154 L268.851192,72.4154009 L268.566972,72.7968916 L268.666449,73.2089956 L268.223538,73.2443189 L267.688255,73.9743318 L266.702957,74.2993053 L266.965861,74.8338632 L267.377981,75.4955846 L266.080039,75.4108089 L266.151094,76.6753797 L267.171921,76.8260921 L267.830366,75.7781703 L268.780137,75.29071 L269.196994,75.7687507 L269.772542,76.5176027 L270.18703,76.039562 L269.386475,75.5120688 L269.348579,75.0057695 L269.732277,75.1894501 L270.374142,75.6933946 L270.343352,76.197339 L270.828896,76.7954786 L271.04443,76.0324974 L271.304966,76.1596609 L271.653136,76.7578005 L272.733175,76.9297068 L272.562643,77.5160721 L272.159997,77.7586247 L270.596782,77.3724243 L270.205978,77.9234664 L269.178046,77.2664547 L269.019356,76.6070882 L266.50637,77.0521606 L265.22264,78.6275757 L265,80.7422583 L266.352418,82.0186036 L268.746978,81.8443424 L269.467004,84.0249617 L269.206468,85.2777582 L270.364668,88 L271.660242,87.7550924 L272.939236,85.3248558 L273.640314,84.7738137 L273.431885,83.0971388 L274.680088,81.9526669 L275.063786,80.5844813 L273.808478,81.1755563 L272.501062,78.2625692 L272.766335,78.2154716 L274.04296,80.6716119 L276.465943,79.2045214 L275.636965,78.5828329 L275.009311,78.9054515 L274.609033,77.9682091 L274.881411,77.812787 L275.43801,78.2719887 L277.328079,78.6110915 L278.11916,79.5412693 L278.841555,81.2933004 L279.38868,80.7446132 L279.383943,80.0828918 L280.906893,79.0137761 L281.468229,80.1817968 L281.915877,80.0616979 L282.02246,81.2320735 L282.500898,82.0868951 L281.477703,81.5853055 L282.230889,82.6355822 L283.062235,83.407983 L285.032832,83.744731 L283.962267,83.3279171 L283.175923,83.054751 L282.889334,81.8090192 L282.256942,81.1096197 L282.273522,80.4055104 L283.003022,81.1449429 L283.706468,80.551513 L283.031444,79.5836571 L283.341718,79.0702932 L284.795982,78.9808077 L285.452058,77.7656894 L284.971251,76.4422466 L285.553904,75.8087837 L285.992078,76.3904392 L286.155505,77.1345814 L286.662365,76.8567055 L286.458674,76.0372071 L286.889742,75.408454 L287.597926,75.2883551 L288.400849,73.0158954 L287.692666,72.5143059 L288.663754,71.5652891 L289.961696,71.6359355 L291.015681,70.7693395 L291.84229,70.6445308 L290.518295,72.2576239 L290.568033,73.6634876 L291.579386,72.4036265 L291.536753,71.5040622 L292.593107,71.2638644 Z" id="Fill-67" fill="#FEFEFE"></path>
                <polygon id="Fill-69" fill="#FEFEFE" points="259.926097 69.2349312 259.057737 69 258 70.179402 259.401848 73.8362601 260.050808 74 260.094688 72.8039867 260.531178 72.5263408 260.551963 72.0730897 261 71.192691 260.678984 70.5329853"></polygon>
                <polygon id="Fill-77" fill="#A9A4A5" points="100 177.362443 21.055089 178 21 170.64 99.9425158 170"></polygon>
                <polygon id="Fill-79" fill="#33B4B2" points="207 149.302139 128.028742 150 128 145.697861 206.968863 145"></polygon>
                <polygon id="Fill-81" fill="#33B4B2" points="191 140.536264 128.030864 141 128 137.463736 190.966762 137"></polygon>
                <polygon id="Fill-83" fill="#A9A4A5" points="221 129.228224 128.055054 130 128 122.769279 220.94734 122"></polygon>
                <polygon id="Fill-85" fill="#FEFEFE" points="185 28.8701634 53.0357989 30 53 25.1324162 184.961815 24"></polygon>
                <polygon id="Fill-87" fill="#FEFEFE" points="149 22.2262774 53.0382099 23 53 17.7737226 148.957014 17"></polygon>
            </g>
            <g id="Group" transform="translate(295.000000, 325.000000)">
                <path d="M44.1026211,0.12375241 C17.9376469,2.00041864 -1.75136558,24.7328005 0.123529769,50.8981934 C2.00016597,77.0635863 24.733925,96.7529138 50.8988991,94.8762476 C77.0638733,93.0013222 96.7528858,70.2671995 94.8762496,44.1018066 C92.9996134,17.9364137 70.2675952,-1.75291382 44.1026211,0.12375241" id="Fill-71" fill="#FEFEFE"></path>
                <path d="M44.1026211,0.12375241 C17.9376469,2.00041864 -1.75136558,24.7328005 0.123529769,50.8981934 C2.00016597,77.0635863 24.733925,96.7529138 50.8988991,94.8762476 C77.0638733,93.0013222 96.7528858,70.2671995 94.8762496,44.1018066 C92.9996134,17.9364137 70.2675952,-1.75291382 44.1026211,0.12375241 Z" id="Stroke-73" stroke="#E5E5E5"></path>
                <polygon id="Fill-75" fill="#2DBCB5" points="44.0553567 69 21 49.0484137 25.4461043 43.9165142 43.3679942 59.4409888 59.4540171 40.8711347 68.8700135 30 74 34.4271117"></polygon>
            </g>
        </g>
    </g>
</svg>