<svg width="32" height="32" viewBox="0 0 32 32" fill="none" xmlns="http://www.w3.org/2000/svg">
<g clip-path="url(#clip0_2694_8)">
<path fill-rule="evenodd" clip-rule="evenodd" d="M16.2711 0.0797832L31.5308 15.0536C32.1564 15.6871 32.1564 16.7412 31.5308 17.4C30.879 18.0322 29.8348 18.0322 29.2092 17.4L27.5921 15.8176V15.8974L27.5658 31.3666C27.5658 31.7087 27.305 32 26.9665 32H21.0184C20.7325 32 20.5232 31.7619 20.5232 31.4995V21.724C20.5232 19.2193 18.4886 17.1897 16.0103 17.1897C13.5069 17.1897 11.4975 19.2193 11.4975 21.724V31.4995C11.4975 31.7619 11.263 32 10.9748 32H5.02898C4.68929 32 4.40222 31.7087 4.40222 31.3666V15.924L2.81142 17.4786C2.15955 18.112 1.11655 18.112 0.489801 17.4786C-0.163267 16.8198 -0.163267 15.7657 0.489801 15.1334L15.8273 0.0797832C15.9314 -0.0265944 16.1407 -0.0265944 16.2711 0.0797832ZM27.1227 0.896594L27.1491 7.56696L23.0273 3.4013V0.896594C23.0273 -0.0789371 27.1227 -0.0789371 27.1227 0.896594Z" fill="#2C4E9D"/>
</g>
<defs>
<clipPath id="clip0_2694_8">
<rect width="32" height="32" fill="white"/>
</clipPath>
</defs>
</svg>
