<svg width="32" height="32" viewBox="0 0 32 32" fill="none" xmlns="http://www.w3.org/2000/svg">
<g clip-path="url(#clip0_2694_5)">
<path fill-rule="evenodd" clip-rule="evenodd" d="M32 28.875V32H7V28.875H32ZM19.5 7L32 12.47V14.81H28.875V26.14H30.44V28.095H8.56V26.14H10.125V14.81H7V12.47L19.5 7ZM15.205 14.81H13.25V26.14H15.205V14.81ZM20.67 14.81H18.33V26.14H20.67V14.81ZM25.75 14.81H23.795V26.14H25.75V14.81ZM5.575 0L9.575 4.01L10.915 5.34L5.575 10.68L4.245 9.34L7.3 6.285H0V4.395H7.3L4.245 1.34L5.575 0Z" fill="#2C4E9D"/>
</g>
<defs>
<clipPath id="clip0_2694_5">
<rect width="32" height="32" fill="white"/>
</clipPath>
</defs>
</svg>
