<svg width="32" height="32" viewBox="0 0 32 32" fill="none" xmlns="http://www.w3.org/2000/svg">
<g clip-path="url(#clip0_2694_11)">
<path fill-rule="evenodd" clip-rule="evenodd" d="M4.29557 4.29487C9.7842 -1.19287 18.599 -1.4543 24.4033 3.6985C30.2076 8.8513 30.9911 17.6337 26.1906 23.7322L31.4553 29.0062C31.9155 29.4397 32.1031 30.0894 31.9447 30.7014C31.7863 31.3135 31.307 31.7906 30.6943 31.9465C30.0815 32.1023 29.4325 31.9121 29.0008 31.4501L23.7361 26.1863C17.6365 30.9861 8.85275 30.2027 3.6991 24.3993C-1.45454 18.5959 -1.19306 9.7826 4.29557 4.29487ZM24.7354 8.82259C22.0957 4.28458 16.7359 2.08603 11.6692 3.46299C6.60251 4.83994 3.0933 9.4488 3.11438 14.6984C3.13033 19.3658 5.94497 23.5683 10.2554 25.3603C14.5659 27.1524 19.5308 26.1842 22.8519 22.9041L22.8875 22.8634C22.9015 22.85 22.9168 22.8381 22.9332 22.8278C26.6357 19.1057 27.375 13.3606 24.7354 8.82259ZM14.7466 5.77127C16.5238 5.79536 18.2187 6.5248 19.4578 7.79895C20.6969 9.07311 21.3786 10.7875 21.3528 12.5644C21.3528 19.3627 14.7466 24.0625 14.7466 24.0625C14.7466 24.0625 8.14031 19.3627 8.14031 12.5644C8.11452 10.7875 8.79625 9.07311 10.0353 7.79895C11.2744 6.5248 12.9693 5.79536 14.7466 5.77127ZM16.234 8.65197C14.6457 8.00852 12.8259 8.38987 11.6297 9.61684C10.4335 10.8438 10.0987 12.6725 10.7827 14.2435C11.4666 15.8146 13.0333 16.8157 14.7466 16.7765L14.7516 16.7663C15.8573 16.7543 16.9126 16.3029 17.6849 15.5117C18.4571 14.7205 18.8828 13.6546 18.8678 12.5492C18.8633 10.8358 17.8222 9.29543 16.234 8.65197Z" fill="#2C4E9D"/>
</g>
<defs>
<clipPath id="clip0_2694_11">
<rect width="32" height="32" fill="white"/>
</clipPath>
</defs>
</svg>
