<svg width="24" height="25" viewBox="0 0 24 25" fill="none" xmlns="http://www.w3.org/2000/svg">
<g id="Group 40191">
<path id="Vector" d="M5.30329 0.913557L5.43887 0.78937L5.52291 0.747314L5.16272 1.1075L5.30329 0.913557Z" fill="#E31835"/>
<path id="Vector_2" d="M23.4064 20.8129L23.3759 20.8338C22.9799 21.0451 22.5911 21.2705 22.1869 21.4654C21.5761 21.7534 20.9429 21.9913 20.2937 22.1767C20.2049 22.2027 20.1189 22.2392 20.0319 22.2712L19.99 22.2785C19.9841 22.2876 19.9796 22.3031 19.9718 22.3049C19.7558 22.3594 19.5392 22.4128 19.3223 22.4651C19.3172 22.4651 19.31 22.4578 19.304 22.4537L19.2622 22.4601L19.0992 22.4993L19.0573 22.5053L18.8721 22.5459L18.8297 22.5509L18.6444 22.5906L18.6017 22.5947L18.3941 22.6358L18.3517 22.6408L18.1214 22.6814L18.0563 22.6869L17.8028 22.727L17.7372 22.7311L17.439 22.7726L17.3735 22.7767L17.0294 22.8178L16.9187 22.8224C16.809 22.8415 16.6998 22.8648 16.5896 22.8776C16.5387 22.8785 16.4879 22.8738 16.438 22.8634L16.2596 22.8703C16.232 22.8852 16.2022 22.8957 16.1713 22.9013C15.8017 22.9109 15.432 22.9223 15.0619 22.9237C14.8343 22.9237 14.6022 22.9114 14.3723 22.9013C14.3451 22.8954 14.3191 22.8849 14.2954 22.8703L14.1169 22.8634L13.6367 22.8224L13.5256 22.8178L13.1815 22.7767L13.1164 22.7726L12.8178 22.7311L12.7522 22.727L12.4991 22.6869L12.434 22.6814L12.226 22.6412L12.1609 22.6358L11.9533 22.5947L11.911 22.5906L11.7252 22.5509L11.6834 22.5459L11.4976 22.5053L11.4558 22.4993L11.2928 22.4601L11.2514 22.4537C11.1635 22.4457 11.0761 22.4331 10.9896 22.4158C10.1834 22.2137 9.39092 21.9677 8.63163 21.6251C8.31299 21.4804 7.99934 21.3166 7.67979 21.1688C7.62344 21.1439 7.55968 21.1418 7.5018 21.1628C7.03473 21.3771 6.54649 21.5415 6.04513 21.6533C5.97548 21.6684 5.90583 21.6821 5.83618 21.6967L5.72375 21.6894L5.67823 21.7017C5.67905 21.7085 5.67905 21.7154 5.67823 21.7222C5.53347 21.741 5.38917 21.7583 5.24441 21.7756L5.20208 21.7711L4.81469 21.834C4.61804 21.845 4.42139 21.8601 4.22292 21.8642C4.15902 21.857 4.0963 21.8417 4.03628 21.8185L3.90245 21.8112L3.74449 21.8067L3.7404 21.7706L3.69487 21.725C3.61157 21.6652 3.67894 21.6232 3.71308 21.579C3.89517 21.3467 4.0859 21.1227 4.25524 20.8808C4.50318 20.5238 4.66807 20.1156 4.73776 19.6863C4.82243 19.193 4.74049 18.7363 4.41411 18.3201C4.16496 17.9943 3.94673 17.6458 3.76224 17.2793C3.49822 16.7678 3.25605 16.2435 3.03892 15.711C2.88187 15.3259 2.77216 14.9198 2.65654 14.5192C2.55776 14.1756 2.47036 13.8284 2.39661 13.4788C2.33334 13.1763 2.29146 12.8692 2.24776 12.5631C2.19996 12.2263 2.15672 11.8891 2.11985 11.5514C2.09982 11.363 2.09481 11.1732 2.09026 10.9838C2.0807 10.5782 2.06203 10.1721 2.0725 9.76688C2.08297 9.37812 2.12167 8.99118 2.1549 8.60196C2.1813 8.29351 2.21134 7.9846 2.25231 7.67751C2.28099 7.46077 2.32742 7.24631 2.37067 7.03231C2.41619 6.80416 2.46535 6.57602 2.51952 6.34787C2.57961 6.09508 2.63605 5.84047 2.71481 5.59362C2.83544 5.21763 2.95607 4.83982 3.10902 4.47661C3.31341 3.99157 3.53418 3.512 3.77499 3.0443C4.09555 2.43367 4.48718 1.86328 4.9417 1.34506C4.99951 1.27799 5.06824 1.21958 5.13197 1.15707L5.24532 1.04071C5.28766 0.980937 5.33045 0.921619 5.37324 0.861845L5.4966 0.747314C5.46788 0.750145 5.43961 0.756427 5.41238 0.766023C5.23667 0.857282 5.06096 0.943977 4.88798 1.0398C3.96776 1.54234 3.14541 2.20698 2.46034 3.00186C1.81722 3.75134 1.29501 4.59704 0.912626 5.50829C0.644177 6.13971 0.441446 6.79721 0.307652 7.47035C0.222072 7.90018 0.160618 8.33731 0.117829 8.77353C0.0618377 9.34253 0.00584642 9.91427 0.00220474 10.4851C-0.00644426 11.8859 0.0122203 13.2876 0.0258766 14.6885C0.0250568 14.9843 0.0420822 15.2799 0.0768599 15.5737C0.153335 16.1591 0.235273 16.745 0.345434 17.3249C0.496564 18.1221 0.771511 18.88 1.12521 19.6105C1.57951 20.5644 2.19561 21.4319 2.94605 22.1744C3.37146 22.5905 3.83768 22.9624 4.33763 23.2846C5.043 23.7443 5.80465 24.1106 6.60367 24.3747C7.40813 24.643 8.24182 24.8135 9.08684 24.8825C9.76511 24.9359 10.4452 24.9921 11.1244 24.9975C12.4732 25.0076 13.8219 24.9857 15.1707 24.9715C15.4178 24.966 15.6644 24.9472 15.9095 24.9154C16.3333 24.8647 16.759 24.8191 17.1778 24.7384C17.6439 24.6471 18.1087 24.5385 18.5643 24.4044C19.1551 24.2244 19.7255 23.9832 20.2664 23.6848C20.9018 23.3455 21.4948 22.932 22.033 22.4528C22.5391 22.0001 22.9909 21.4901 23.3795 20.9329C23.397 20.8956 23.408 20.8556 23.4123 20.8147L23.4064 20.8129Z" fill="#E31835"/>
<path id="Vector_3" d="M6.79056 13.4386H10.1759C10.3249 13.4386 10.3249 13.4386 10.3254 13.5855C10.3254 13.7211 10.3254 13.8568 10.3254 13.9924C10.3254 14.251 10.1453 14.4341 9.88824 14.4345C8.39275 14.4345 6.8971 14.4345 5.4013 14.4345C5.31397 14.4345 5.28426 14.4105 5.28336 14.3201C5.28066 14.0398 5.27795 13.7618 5.46658 13.5263C5.65521 13.2908 5.84113 13.0571 6.0293 12.8229C6.7616 11.9112 7.49479 10.9991 8.22888 10.0865L8.67906 9.52553C8.70877 9.48846 8.73714 9.45003 8.78395 9.38991C8.71598 9.38629 8.67366 9.38177 8.63134 9.38177C7.60448 9.38177 6.57717 9.38177 5.55031 9.38177C5.44947 9.38177 5.41301 9.35917 5.41526 9.25112C5.42291 8.97988 5.42021 8.70864 5.41526 8.43741C5.41526 8.34699 5.44047 8.31128 5.53636 8.31128C7.08438 8.31369 8.63254 8.31369 10.1809 8.31128C10.2768 8.31128 10.3123 8.34338 10.3159 8.44193C10.324 8.8081 10.2052 9.12002 9.97243 9.40347C9.46192 10.0278 8.96673 10.6647 8.46523 11.2967C7.93371 11.9685 7.4022 12.6395 6.87069 13.3098C6.84683 13.3401 6.82972 13.3753 6.79056 13.4386Z" fill="#E31835"/>
<path id="Vector_4" d="M14.4522 10.0709C14.4559 9.98599 14.4615 9.93088 14.4601 9.87623C14.4601 9.8008 14.4906 9.76557 14.5696 9.76602C14.8391 9.76602 15.1082 9.76602 15.3771 9.76602C15.4552 9.76602 15.4894 9.79854 15.488 9.87443C15.488 9.99864 15.488 10.1224 15.488 10.2466V14.2277C15.488 14.3903 15.488 14.3903 15.3235 14.3903H14.9429C14.6975 14.3903 14.5608 14.2954 14.4763 14.0678C14.4651 14.0432 14.4526 14.0192 14.4388 13.9959C13.7413 14.4417 12.9961 14.5587 12.2084 14.2954C11.7131 14.1304 11.2867 13.8114 10.9943 13.3871C10.6979 12.9643 10.5481 12.4597 10.567 11.9474C10.5859 11.4352 10.7724 10.9424 11.0992 10.5415C11.4974 10.0447 12.0232 9.75383 12.6648 9.65943C13.3065 9.56503 13.8877 9.71544 14.4522 10.0709ZM14.4522 12.0316C14.4505 11.6603 14.298 11.3048 14.0282 11.0434C13.7584 10.782 13.3935 10.6361 13.0136 10.6378C12.6338 10.6394 12.2702 10.7886 12.0029 11.0523C11.7355 11.3161 11.5863 11.6729 11.588 12.0443C11.588 12.8044 12.238 13.4291 13.0284 13.4282C13.2158 13.4284 13.4014 13.3923 13.5744 13.3221C13.7475 13.252 13.9047 13.149 14.0369 13.0192C14.1692 12.8894 14.2739 12.7354 14.345 12.5659C14.4161 12.3964 14.4522 12.2148 14.4513 12.0316H14.4522Z" fill="#E31835"/>
<path id="Vector_5" d="M20.4723 9.6325C21.7802 9.6033 22.9358 10.6659 22.9321 12.0255C22.9344 12.3424 22.8723 12.6565 22.7492 12.9497C22.6262 13.2429 22.4448 13.5093 22.2154 13.7334C21.9861 13.9575 21.7135 14.1349 21.4134 14.2552C21.1133 14.3755 20.7917 14.4364 20.4673 14.4343C19.0959 14.4384 17.9684 13.3223 18.0107 11.942C18.048 10.7167 19.1217 9.6006 20.4723 9.6325ZM19.0343 12.0408C19.0351 12.3172 19.1196 12.5871 19.277 12.8167C19.4344 13.0463 19.6578 13.2253 19.9191 13.3313C20.1804 13.4373 20.4679 13.4655 20.7456 13.4124C21.0232 13.3592 21.2786 13.2271 21.4796 13.0326C21.6806 12.8382 21.8183 12.59 21.8754 12.3194C21.9324 12.0487 21.9063 11.7676 21.8003 11.5114C21.6943 11.2552 21.5131 11.0353 21.2796 10.8794C21.046 10.7234 20.7704 10.6384 20.4875 10.6349C20.297 10.632 20.1078 10.6662 19.9311 10.7357C19.7543 10.8051 19.5935 10.9084 19.4581 11.0393C19.3228 11.1703 19.2156 11.3263 19.1428 11.4983C19.07 11.6703 19.0331 11.8547 19.0343 12.0408Z" fill="#E31835"/>
<path id="Vector_6" d="M17.4073 11.3808C17.4073 12.3486 17.4073 13.3162 17.4073 14.2834C17.4073 14.4345 17.4073 14.4345 17.2573 14.4345C17.0724 14.4345 16.8874 14.4345 16.7029 14.4345C16.4944 14.4345 16.3576 14.3083 16.3367 14.0993C16.3313 14.047 16.3285 13.9944 16.3286 13.9418C16.3286 12.1202 16.3286 10.2984 16.3286 8.4764C16.3286 8.31128 16.3285 8.31128 16.499 8.31128H17.2242C17.4091 8.31128 17.4091 8.31128 17.4091 8.50129L17.4073 11.3808Z" fill="#E31835"/>
<path id="Vector_7" d="M3.63679 21.7583C3.55515 21.6987 3.62118 21.6568 3.65464 21.6126C3.8331 21.3808 4.02003 21.1572 4.186 20.9159C4.429 20.5596 4.5906 20.1522 4.65891 19.7237C4.74189 19.2314 4.66159 18.7755 4.3417 18.3602C4.0964 18.034 3.88161 17.685 3.70014 17.3178C3.44138 16.8073 3.20403 16.2841 2.99122 15.7527C2.8373 15.3683 2.72978 14.963 2.61645 14.5632C2.51964 14.2203 2.43398 13.8737 2.36171 13.5249C2.29969 13.223 2.25865 12.9165 2.21582 12.6109C2.16897 12.2748 2.12659 11.9383 2.09045 11.6013C2.07082 11.4132 2.06591 11.2238 2.06145 11.0348C2.05208 10.63 2.03379 10.2247 2.04405 9.82029C2.05431 9.4323 2.09223 9.04613 2.1248 8.65768C2.15068 8.34984 2.18012 8.04154 2.22028 7.73506C2.24839 7.51875 2.29389 7.30472 2.33627 7.09114C2.38089 6.86345 2.42907 6.63575 2.48217 6.40806C2.54106 6.15577 2.59638 5.90166 2.67356 5.6553C2.79179 5.28005 2.91002 4.90299 3.05992 4.5405C3.26024 4.05642 3.47662 3.57781 3.71264 3.11103C4.02681 2.50161 4.41065 1.93235 4.85611 1.41516C4.91277 1.34822 4.98014 1.28993 5.0426 1.22754C4.97746 1.31862 4.91634 1.40969 4.84585 1.49622C4.14299 2.34973 3.58079 3.31424 3.18128 4.35197C2.98809 4.84971 2.81097 5.35702 2.66732 5.87206C2.52812 6.37299 2.42952 6.88531 2.33404 7.39671C2.25998 7.79335 2.21359 8.19592 2.16317 8.59712C2.13643 8.80712 2.12034 9.0184 2.11499 9.23011C2.10383 9.711 2.08956 10.1928 2.10205 10.6732C2.11454 11.1336 2.14176 11.5954 2.19396 12.0531C2.25374 12.5777 2.32378 13.1037 2.4313 13.6201C2.78108 15.2927 3.36821 16.8684 4.3359 18.2801C4.46082 18.4622 4.59913 18.6357 4.66427 18.8552C4.74453 19.1205 4.76136 19.4016 4.71334 19.6749C4.58351 20.4259 4.2315 21.057 3.72245 21.6058C3.68794 21.6529 3.65917 21.7041 3.63679 21.7583Z" fill="#E31835"/>
<path id="Vector_8" d="M11.1659 22.4787C11.0783 22.4708 10.9911 22.4585 10.9048 22.4416C10.1004 22.2439 9.3097 22.0034 8.55214 21.6682C8.23422 21.5268 7.92129 21.3665 7.60246 21.2219C7.54624 21.1976 7.48263 21.1955 7.42488 21.2161C6.95888 21.4257 6.47175 21.5865 5.97153 21.6959C5.90204 21.7106 5.83255 21.724 5.76306 21.7383C5.7676 21.7258 5.77169 21.7137 5.77578 21.7017C6.13412 21.6022 6.49474 21.5102 6.8499 21.4C7.05019 21.338 7.24003 21.2429 7.43714 21.1697C7.48305 21.1532 7.53362 21.1541 7.57885 21.1724C8.12611 21.4623 8.69519 21.7106 9.28109 21.915C9.80339 22.0904 10.3375 22.2314 10.8666 22.3881C10.9674 22.4162 11.0664 22.4483 11.1659 22.4787Z" fill="#E31835"/>
<path id="Vector_9" d="M16.2085 22.8556C16.1815 22.8846 16.1524 22.9048 16.1222 22.9157C15.7607 22.9342 15.3992 22.9563 15.0372 22.9589C14.8146 22.9589 14.5876 22.9351 14.3628 22.9157C14.3362 22.9042 14.3107 22.8839 14.2875 22.8556C14.4754 22.8556 14.6628 22.8459 14.8507 22.845C15.2265 22.8415 15.6022 22.8395 15.9779 22.8389C16.0545 22.8389 16.1333 22.8495 16.2085 22.8556Z" fill="#E31835"/>
<path id="Vector_10" d="M19.9306 22.2385C19.9254 22.2503 19.9214 22.2702 19.9146 22.2726C19.7256 22.3426 19.5361 22.4113 19.3462 22.4787C19.3418 22.4787 19.3354 22.4693 19.3303 22.464C19.4008 22.4317 19.4701 22.3935 19.5418 22.3677C19.6709 22.3231 19.8007 22.2808 19.9306 22.2385Z" fill="#E31835"/>
<path id="Vector_11" d="M4.80332 21.8784C4.80205 21.8646 4.80205 21.8504 4.80332 21.8366L5.16256 21.7583L4.80332 21.8784Z" fill="#E5E5E5"/>
<path id="Vector_12" d="M3.84211 21.8784L3.72508 21.8649L3.72205 21.7583L3.84211 21.8784Z" fill="#E31835"/>
<path id="Vector_13" d="M5.76319 21.6382C5.75926 21.6777 5.75533 21.7173 5.75097 21.7582L5.64313 21.7348L5.76319 21.6382Z" fill="#E5E5E5"/>
</g>
</svg>
